{"glyphs":{"0":{"ha":688,"x_min":52,"x_max":635,"o":"m 344 989 q 487 924 417 989 q 596 739 557 859 q 635 486 635 618 q 597 235 635 355 q 489 50 559 116 q 344 -17 420 -17 q 198 50 268 -17 q 91 235 129 116 q 52 486 52 355 q 91 739 52 618 q 200 924 130 859 q 344 989 270 989 m 161 467 q 202 237 170 345 q 283 71 235 128 q 370 18 327 18 q 378 19 374 18 q 465 90 426 24 q 520 270 504 156 q 530 419 530 342 q 527 505 530 461 q 485 737 517 627 q 404 903 452 847 q 317 954 359 954 q 309 954 313 954 q 224 884 263 949 q 168 705 184 819 q 157 552 157 630 q 161 467 157 510 z "},"1":{"ha":688,"x_min":148,"x_max":538,"o":"m 159 0 l 159 34 l 224 34 q 294 193 294 34 l 294 732 q 214 819 294 819 l 148 819 l 148 853 q 370 972 346 896 l 404 972 l 404 193 q 473 34 404 34 l 538 34 l 538 0 l 159 0 z "},"2":{"ha":688,"x_min":77,"x_max":635,"o":"m 490 703 q 431 869 490 803 q 305 935 373 935 q 119 846 190 935 l 104 846 l 104 879 q 182 949 130 913 q 307 986 233 986 q 515 904 431 986 q 599 703 599 822 q 174 81 599 525 l 460 81 q 602 157 548 81 l 635 157 l 565 0 l 77 0 l 78 34 q 490 703 490 492 z "},"3":{"ha":688,"x_min":56,"x_max":607,"o":"m 295 15 q 443 94 397 15 q 488 284 488 173 q 458 424 488 355 q 338 524 428 492 l 338 537 q 436 619 393 568 q 479 761 479 670 q 441 889 479 836 q 329 952 404 943 q 245 922 283 952 q 208 846 208 891 l 179 846 l 179 954 q 229 977 179 968 q 334 986 279 986 q 509 929 439 986 q 578 760 578 872 q 536 648 578 701 q 406 553 495 594 q 538 462 469 544 q 607 273 607 380 q 509 74 607 163 q 289 -15 412 -15 q 121 12 186 -15 q 56 71 56 38 l 56 139 l 90 139 q 148 49 90 83 q 295 15 206 15 z "},"4":{"ha":688,"x_min":29,"x_max":677,"o":"m 407 297 l 407 762 l 119 297 l 407 297 m 500 229 l 500 113 q 549 34 500 34 l 600 34 l 600 0 l 300 0 l 300 34 l 352 34 q 407 115 407 34 l 407 229 l 29 229 l 29 253 l 477 972 l 500 972 l 500 297 l 513 297 q 644 387 603 297 l 677 387 l 607 229 l 500 229 z "},"5":{"ha":688,"x_min":52,"x_max":631,"o":"m 155 578 l 253 972 l 522 972 q 597 1008 591 972 l 631 1008 l 589 891 l 298 891 l 227 610 q 490 525 380 610 q 600 321 600 441 q 503 74 600 163 q 283 -15 406 -15 q 115 12 180 -15 q 52 67 52 37 l 52 139 l 83 139 q 142 47 83 79 q 289 15 200 15 q 436 94 391 15 q 481 330 481 173 q 407 509 481 437 q 214 581 332 581 q 155 578 186 581 z "},"6":{"ha":688,"x_min":52,"x_max":635,"o":"m 378 7 q 489 74 447 7 q 531 242 531 141 q 463 468 531 380 q 317 557 395 557 q 206 488 255 557 q 157 318 157 419 q 222 111 157 214 q 378 7 287 7 m 543 989 l 543 957 q 322 835 423 949 q 163 518 220 722 q 344 581 229 581 q 487 543 417 581 q 596 432 557 504 q 635 282 635 361 q 597 133 635 203 q 499 22 559 62 q 385 -17 440 -17 q 136 93 220 -17 q 52 346 52 203 q 194 776 52 563 q 543 989 336 989 z "},"7":{"ha":688,"x_min":65,"x_max":623,"o":"m 500 891 l 229 891 q 99 815 139 891 l 65 815 l 135 972 l 623 972 l 622 939 q 371 121 371 351 q 416 34 371 34 l 496 34 l 496 0 l 217 0 l 217 34 l 262 34 q 311 123 311 34 q 500 891 324 323 z "},"8":{"ha":688,"x_min":52,"x_max":635,"o":"m 374 563 q 480 647 456 580 q 498 742 498 698 q 496 768 498 755 q 461 873 488 823 q 393 947 433 922 q 321 970 356 970 l 315 970 q 244 939 277 968 q 197 858 211 909 q 189 790 189 825 q 191 751 189 771 q 226 648 199 697 q 374 563 253 600 m 320 532 q 197 426 243 518 q 159 286 159 348 q 161 262 159 274 q 202 129 170 192 q 283 34 235 66 q 370 4 326 4 l 378 4 q 465 45 426 7 q 520 149 504 83 q 530 235 530 191 q 527 284 530 259 q 477 428 519 360 q 320 532 435 496 m 431 550 q 487 526 460 541 q 596 419 557 488 q 635 273 635 349 q 597 129 635 197 q 489 21 559 60 q 344 -17 420 -17 q 198 21 268 -17 q 91 129 129 60 q 52 273 52 197 q 91 419 52 349 q 200 526 130 488 q 256 550 228 541 q 223 564 239 556 q 133 648 165 594 q 101 760 101 701 q 134 873 101 819 q 224 957 166 928 q 344 986 282 986 q 463 957 405 986 q 554 873 522 928 q 587 760 587 819 q 555 648 587 701 q 465 564 523 594 q 431 550 448 555 z "},"9":{"ha":688,"x_min":52,"x_max":635,"o":"m 309 965 q 199 898 241 965 q 157 730 157 831 q 225 504 157 593 q 371 416 293 416 q 482 485 433 416 q 531 654 531 553 q 466 862 531 758 q 309 965 401 965 m 144 -17 l 144 16 q 366 137 264 24 q 524 454 467 251 q 344 391 460 391 q 201 430 271 391 q 92 540 131 469 q 52 690 52 612 q 91 840 52 769 q 188 950 129 911 q 303 989 248 989 q 552 879 468 989 q 635 627 635 769 q 494 196 635 410 q 144 -17 352 -17 z "}," ":{"ha":345,"x_min":0,"x_max":0,"o":""},"!":{"ha":456,"x_min":140,"x_max":310,"o":"m 212 222 l 179 925 q 193 972 179 956 q 235 987 208 987 q 278 972 264 987 q 292 925 292 956 l 237 222 l 212 222 m 151 113 l 207 170 q 227 180 217 180 q 248 169 235 180 l 302 111 q 310 91 310 100 q 300 70 310 81 l 246 10 q 227 -3 233 -3 q 207 6 216 -3 l 147 75 q 140 92 140 83 q 151 113 140 102 z "},"\"":{"ha":456,"x_min":68,"x_max":390,"o":"m 134 751 l 113 751 l 71 995 q 68 1017 68 1010 q 82 1056 68 1042 q 123 1069 96 1069 q 164 1056 149 1069 q 178 1018 178 1043 q 176 995 178 1013 l 134 751 m 345 751 l 325 751 l 283 995 q 280 1017 280 1010 q 294 1056 280 1042 q 334 1069 308 1069 q 375 1056 361 1069 q 390 1018 390 1043 q 387 995 390 1013 l 345 751 z "},"#":{"ha":906,"x_min":79,"x_max":827,"o":"m 404 583 l 347 386 l 511 386 l 569 583 l 404 583 m 456 972 l 519 972 l 424 649 l 588 649 l 684 972 l 747 972 l 651 649 l 827 649 l 807 583 l 631 583 l 575 387 l 764 387 l 744 320 l 554 320 l 459 0 l 397 0 l 491 320 l 328 320 l 232 0 l 170 0 l 264 320 l 79 320 l 100 387 l 283 387 l 342 583 l 142 583 l 161 649 l 361 649 l 456 972 z "},"$":{"ha":688,"x_min":77,"x_max":665,"o":"m 391 1053 l 391 983 q 487 960 437 978 q 500 956 494 956 q 528 986 517 956 l 562 986 l 631 795 l 598 795 q 484 916 557 886 q 391 943 434 937 l 391 576 q 610 452 555 513 q 665 273 665 391 q 584 70 665 140 q 391 -12 503 0 l 391 -174 l 342 -174 l 342 -13 q 161 13 214 -11 q 149 17 155 17 q 121 -14 132 17 l 87 -14 l 87 211 l 120 211 q 223 58 154 87 q 342 28 293 28 l 342 459 q 139 563 197 505 q 77 732 77 625 q 161 916 77 844 q 342 985 233 975 l 342 1053 l 391 1053 m 391 444 l 391 31 q 535 96 476 42 q 593 244 593 149 q 547 368 593 323 q 391 444 505 408 m 342 592 l 342 945 q 207 896 261 941 q 149 772 149 846 q 186 669 149 706 q 342 592 221 632 z "},"%":{"ha":1092,"x_min":42,"x_max":1050,"o":"m 304 989 q 434 956 371 989 q 532 862 496 923 q 567 732 567 800 q 533 605 567 665 q 436 510 498 544 q 304 475 373 475 q 174 510 237 475 q 77 605 111 544 q 42 732 42 665 q 77 862 42 800 q 175 956 113 923 q 304 989 238 989 m 140 723 q 177 605 149 661 q 250 521 206 550 q 327 494 288 494 q 336 494 332 494 q 414 530 378 496 q 463 623 449 564 q 472 698 472 659 q 469 742 472 720 q 431 861 461 805 q 359 945 401 917 q 281 971 319 971 l 273 971 q 197 936 232 969 q 147 844 161 903 q 137 765 137 805 q 140 723 137 744 m 201 -20 l 839 971 l 896 971 l 260 -20 l 201 -20 m 787 500 q 916 467 853 500 q 1015 372 979 433 q 1050 243 1050 311 q 1016 115 1050 176 q 919 20 981 54 q 787 -14 856 -14 q 656 20 719 -14 q 559 115 594 54 q 525 243 525 176 q 560 372 525 311 q 658 467 595 433 q 787 500 721 500 m 623 233 q 660 116 631 171 q 732 31 689 60 q 811 5 772 5 l 819 5 q 897 41 861 7 q 946 133 932 75 q 955 208 955 170 q 952 252 955 230 q 914 371 944 315 q 842 456 884 427 q 764 481 802 481 l 756 481 q 680 446 715 479 q 630 355 644 413 q 620 275 620 315 q 623 233 620 254 z "},"&":{"ha":1141,"x_min":103,"x_max":1124,"o":"m 713 133 l 337 596 q 215 538 257 596 q 174 399 174 479 q 198 276 174 338 q 267 165 222 215 q 378 79 315 109 q 510 49 441 49 q 625 72 570 49 q 713 133 680 94 m 945 0 q 851 17 907 0 q 738 106 795 34 q 619 23 692 56 q 456 -11 546 -11 q 202 91 300 -11 q 103 353 103 193 q 155 533 103 462 q 307 636 206 605 q 265 715 279 677 q 251 790 251 752 q 303 924 251 861 q 427 986 355 986 q 523 960 473 986 q 535 956 529 956 q 561 986 551 956 l 592 986 l 657 795 l 626 795 q 521 916 589 886 q 425 941 463 941 q 353 910 381 941 q 326 831 326 880 q 395 650 326 742 l 755 195 q 837 361 821 294 q 848 449 848 414 q 806 515 848 515 l 745 515 l 745 549 l 1046 549 l 1046 515 l 985 515 q 886 361 920 515 q 781 163 865 271 q 949 71 855 71 l 960 71 q 1090 157 1057 82 l 1124 157 l 1054 0 l 945 0 z "},"'":{"ha":235,"x_min":68,"x_max":178,"o":"m 134 751 l 113 751 l 71 995 q 68 1017 68 1010 q 82 1056 68 1042 q 123 1069 96 1069 q 164 1056 149 1069 q 178 1018 178 1043 q 176 995 178 1013 l 134 751 z "},"(":{"ha":514,"x_min":171,"x_max":475,"o":"m 171 408 q 238 767 172 595 q 420 1067 304 939 l 475 1067 q 319 770 358 903 q 280 415 280 639 l 280 400 q 319 46 280 176 q 475 -251 358 -87 l 420 -251 q 238 48 304 -123 q 171 408 172 220 z "},")":{"ha":514,"x_min":39,"x_max":343,"o":"m 94 -251 l 39 -251 q 195 46 156 -87 q 234 400 234 176 l 234 415 q 195 770 234 639 q 39 1067 156 903 l 94 1067 q 276 767 210 939 q 343 408 342 595 q 276 48 342 220 q 94 -251 210 -123 z "},"*":{"ha":694,"x_min":148,"x_max":546,"o":"m 338 878 q 313 966 335 926 q 288 1023 288 1010 q 303 1058 288 1044 q 346 1071 319 1071 q 388 1059 371 1071 q 404 1027 404 1046 q 380 966 404 1013 q 355 878 357 925 q 431 929 399 895 q 478 970 466 966 q 492 972 486 972 q 516 966 505 972 q 542 930 534 954 q 546 905 546 917 q 543 886 546 895 q 517 861 536 866 q 505 859 513 859 q 453 865 488 859 q 416 869 434 869 q 361 861 388 869 q 432 805 391 824 q 486 773 478 783 q 494 747 494 761 q 493 736 494 741 q 467 700 488 715 q 427 685 447 685 q 426 686 426 685 q 393 701 405 686 q 378 765 385 713 q 347 850 372 810 q 315 766 321 810 q 302 705 309 715 q 269 686 289 688 l 265 686 q 227 701 246 686 q 200 735 206 715 q 197 749 197 742 q 205 770 197 760 q 261 805 214 782 q 332 861 302 825 q 278 868 304 868 q 242 865 260 868 q 189 857 205 857 q 180 859 183 857 q 152 884 159 865 q 148 904 148 893 q 152 928 148 916 q 176 964 159 952 q 199 972 188 972 q 212 970 205 972 q 262 928 225 966 q 338 878 294 895 z "},"+":{"ha":688,"x_min":59,"x_max":629,"o":"m 296 439 l 59 439 l 59 534 l 296 534 l 296 784 l 297 785 l 391 785 l 391 534 l 628 534 l 629 533 l 629 439 l 391 439 l 391 188 l 296 188 l 296 439 z "},",":{"ha":378,"x_min":81,"x_max":252,"o":"m 161 175 q 221 131 191 175 q 252 28 252 86 q 203 -126 252 -46 q 109 -205 155 -205 l 109 -176 q 168 -47 159 -147 q 81 62 168 33 l 81 90 l 161 175 z "},"-":{"ha":454,"x_min":79,"x_max":376,"o":"m 106 277 q 79 296 79 277 l 79 353 q 106 372 79 372 l 348 372 q 376 353 376 372 l 376 296 q 349 277 376 277 l 106 277 z "},".":{"ha":378,"x_min":87,"x_max":257,"o":"m 98 113 l 154 170 q 174 180 164 180 q 195 169 182 180 l 249 111 q 257 91 257 100 q 248 70 257 81 l 193 10 q 174 -3 180 -3 q 154 6 163 -3 l 94 75 q 87 92 87 83 q 98 113 87 102 z "},"/":{"ha":386,"x_min":9,"x_max":430,"o":"m 63 -34 l 9 -34 l 376 972 l 430 972 l 63 -34 z "},":":{"ha":378,"x_min":87,"x_max":257,"o":"m 98 113 l 154 170 q 174 180 164 180 q 195 169 182 180 l 249 111 q 257 91 257 100 q 248 70 257 81 l 193 10 q 174 -3 180 -3 q 154 6 163 -3 l 94 75 q 87 92 87 83 q 98 113 87 102 m 98 583 l 154 640 q 174 650 164 650 q 195 639 182 650 l 249 581 q 257 561 257 570 q 248 540 257 551 l 193 480 q 174 467 180 467 q 154 476 163 467 l 94 545 q 87 562 87 553 q 98 583 87 572 z "},";":{"ha":378,"x_min":81,"x_max":257,"o":"m 98 583 l 154 640 q 174 649 164 649 q 195 638 182 649 l 249 580 q 257 560 257 569 q 248 539 257 550 l 193 479 q 174 466 180 466 q 154 475 163 466 l 94 544 q 87 562 87 553 q 98 583 87 572 m 161 175 q 221 131 191 175 q 252 28 252 86 q 203 -126 252 -46 q 109 -205 155 -205 l 109 -176 q 168 -47 159 -147 q 81 62 168 33 l 81 90 l 161 175 z "},"<":{"ha":688,"x_min":59,"x_max":629,"o":"m 629 728 l 205 485 l 629 244 l 629 131 l 59 457 l 59 513 l 629 842 l 629 728 z "},"=":{"ha":688,"x_min":59,"x_max":629,"o":"m 59 428 l 629 428 l 629 333 l 59 333 l 59 428 m 59 640 l 629 640 l 629 545 l 59 545 l 59 640 z "},">":{"ha":688,"x_min":59,"x_max":629,"o":"m 59 842 l 629 513 l 629 457 l 59 131 l 59 244 l 483 485 l 59 728 l 59 842 z "},"?":{"ha":507,"x_min":90,"x_max":452,"o":"m 90 902 q 254 972 176 972 q 397 926 343 972 q 452 803 452 880 q 430 708 452 756 q 345 582 408 660 q 249 455 284 505 q 214 358 214 404 q 238 230 214 315 l 206 230 q 172 373 172 323 q 251 585 172 447 q 330 794 330 722 q 298 882 330 850 q 210 913 267 913 q 90 859 153 913 l 90 902 m 151 113 l 207 170 q 227 180 217 180 q 248 169 235 180 l 302 111 q 310 91 310 100 q 300 70 310 81 l 246 10 q 227 -3 233 -3 q 207 6 216 -3 l 147 75 q 140 92 140 83 q 151 113 140 102 z "},"@":{"ha":1369,"x_min":68,"x_max":1276,"o":"m 659 422 q 557 368 603 415 q 511 233 511 320 q 554 101 511 160 q 678 42 597 42 q 764 155 744 45 l 764 478 q 659 422 727 435 m 922 20 q 854 32 880 20 q 812 68 829 43 q 757 25 793 43 q 667 6 721 6 q 493 74 569 6 q 416 233 416 142 q 452 346 417 292 q 542 424 488 399 q 660 457 597 448 q 734 486 705 468 q 764 536 764 504 q 736 621 762 583 q 648 659 709 659 q 566 619 600 659 q 532 534 532 579 l 501 534 l 501 642 q 550 669 501 656 q 671 683 600 683 q 802 639 745 682 q 859 532 859 597 l 859 133 q 923 54 859 54 q 1104 183 1048 77 q 1160 443 1160 290 q 1002 809 1146 670 q 677 937 869 937 q 411 843 538 937 q 228 602 283 750 q 182 357 182 481 q 270 11 182 145 q 477 -186 358 -124 q 693 -249 596 -249 q 1083 -108 879 -249 l 1083 -159 q 696 -283 905 -283 q 383 -200 533 -283 q 151 32 233 -117 q 68 345 68 180 q 152 660 68 509 q 386 891 236 810 q 696 972 536 972 q 1109 817 941 972 q 1276 433 1276 661 q 1157 135 1276 250 q 922 20 1038 21 z "},"A":{"ha":1046,"x_min":14,"x_max":1031,"o":"m 646 1162 q 748 1016 725 1162 l 755 983 l 753 983 l 755 978 l 755 950 q 758 941 755 945 l 755 936 q 758 933 755 933 l 755 917 l 755 895 q 758 886 755 890 q 755 884 758 884 l 758 855 l 758 839 q 755 836 758 836 l 758 831 l 758 818 q 804 581 770 661 q 949 345 844 494 q 1031 123 1004 261 q 1029 117 1029 119 l 1031 112 q 1027 93 1029 93 l 1029 88 q 994 31 1029 60 l 970 24 l 949 24 q 849 126 897 35 q 814 260 831 163 q 767 447 801 380 q 640 576 711 547 l 616 591 l 611 589 q 578 593 593 593 q 512 563 549 593 q 476 468 476 524 q 549 267 476 402 q 568 190 568 220 q 498 45 568 86 l 448 20 q 446 22 446 20 q 339 1 446 16 q 332 3 335 3 l 321 1 l 321 3 q 318 1 318 3 q 77 90 189 1 q 44 133 44 127 q 14 225 14 183 q 157 463 14 340 q 316 624 270 563 q 469 905 416 739 l 509 997 q 592 1134 530 1072 q 646 1162 612 1154 m 627 1084 q 661 1056 635 1056 q 686 1084 686 1064 l 686 1089 q 661 1115 686 1109 l 656 1115 q 627 1084 632 1115 m 540 780 q 543 777 540 777 l 540 768 q 547 716 543 732 q 545 713 545 716 q 559 688 547 713 q 592 673 573 673 q 635 704 616 681 q 653 780 644 730 l 651 785 l 651 787 q 653 789 651 789 l 651 794 l 651 804 q 653 813 651 809 q 649 827 649 823 l 651 827 q 613 924 632 924 l 597 924 q 557 863 572 911 q 540 780 540 809 m 332 178 q 420 102 350 102 q 500 182 500 120 l 500 199 q 431 272 500 249 q 417 275 421 272 q 332 206 357 275 l 332 178 m 932 114 q 958 88 940 88 l 960 88 q 991 114 987 88 l 991 117 q 960 147 988 147 q 932 114 939 147 z "},"B":{"ha":718,"x_min":0,"x_max":692,"o":"m 252 1163 q 258 1161 256 1161 q 261 1163 261 1161 q 448 1124 363 1154 q 551 1064 538 1086 q 635 977 595 1033 q 679 842 673 907 q 671 791 674 827 q 674 785 674 787 q 605 637 659 693 q 549 586 593 619 q 540 582 549 582 l 540 579 q 597 538 553 579 q 651 471 617 524 q 692 342 692 406 q 690 332 692 336 q 692 323 692 328 q 660 189 681 222 q 540 58 639 123 q 408 5 486 23 l 406 5 l 401 7 q 372 0 401 1 l 372 2 q 365 0 367 0 q 275 2 345 0 q 270 7 275 7 l 258 5 q 199 18 258 9 q 87 81 132 42 q 23 205 23 140 q 18 224 20 205 l 21 233 l 18 250 q 85 420 39 372 q 168 494 117 464 q 217 508 213 508 l 217 505 l 222 508 l 224 508 q 227 505 227 508 l 231 508 l 233 508 q 339 448 290 508 q 443 309 372 309 l 452 309 q 454 307 454 309 q 517 351 485 307 l 531 376 q 526 381 526 376 l 531 393 q 469 496 531 451 q 342 538 442 517 q 273 618 273 566 q 332 699 273 650 q 434 750 366 723 q 566 905 566 808 l 566 921 l 561 937 q 563 939 563 937 q 540 977 561 939 q 485 1023 514 1011 q 404 1048 435 1048 l 378 1048 q 240 988 309 1048 q 199 861 199 946 q 205 822 201 826 q 203 819 205 819 q 227 688 227 698 q 224 676 224 684 l 229 674 q 224 651 227 651 q 227 648 224 648 q 178 526 227 593 q 141 505 154 505 q 127 503 130 505 l 122 505 l 118 503 q 64 563 75 503 l 64 574 q 67 577 64 577 l 64 582 q 67 584 64 584 l 64 589 q 102 674 72 621 q 136 766 136 728 q 130 822 136 795 q 132 824 132 822 q 127 829 127 824 q 130 831 127 831 q 95 898 115 874 q 21 990 64 939 q 0 1043 14 1000 q 5 1048 1 1048 l 2 1057 q 125 1147 2 1108 q 127 1145 127 1147 q 150 1154 145 1150 l 157 1154 q 235 1161 210 1161 l 242 1161 q 252 1163 248 1161 m 35 1048 l 35 1046 q 62 1018 40 1018 q 92 1046 92 1023 q 67 1076 88 1076 l 64 1076 q 35 1048 35 1072 m 311 625 q 337 597 318 597 l 344 597 q 370 628 366 597 q 344 653 365 653 l 337 653 q 311 625 317 653 m 97 579 q 122 549 101 549 l 130 549 q 155 574 149 549 q 130 605 151 605 l 122 605 q 97 579 97 600 m 132 370 q 212 288 146 288 l 217 286 q 298 355 275 286 q 300 370 298 366 q 222 452 286 452 q 217 454 222 454 q 134 388 158 454 q 132 370 134 378 z "},"C":{"ha":855,"x_min":0,"x_max":841,"o":"m 561 1164 l 561 1162 l 565 1164 q 744 1090 670 1164 q 807 999 792 1043 q 836 924 822 970 q 841 819 841 855 q 839 812 841 816 q 841 802 841 808 l 836 800 l 839 795 q 789 669 823 706 q 717 604 760 628 q 660 578 705 595 q 658 581 660 581 l 656 576 q 604 574 614 574 q 439 602 553 574 l 434 599 l 422 602 l 402 599 l 402 602 l 398 599 l 391 599 q 389 602 389 599 q 235 529 286 578 q 185 461 185 481 q 161 405 177 461 l 158 391 l 161 387 q 156 378 159 378 q 158 375 156 375 q 156 361 156 363 q 231 151 156 245 l 271 117 q 425 70 355 70 l 446 70 q 466 75 451 70 l 466 73 q 547 109 505 79 q 599 183 599 155 q 626 260 606 191 q 705 328 661 328 l 714 328 q 773 294 753 328 q 778 249 778 294 q 775 246 778 246 q 778 244 775 244 q 771 212 775 217 q 773 205 773 208 l 768 203 l 771 199 q 687 83 764 160 q 651 59 683 83 q 456 0 530 0 l 427 0 q 380 5 392 0 l 375 2 q 346 12 346 9 l 341 9 q 212 66 245 40 q 104 163 161 98 q 39 267 54 230 q 0 434 12 322 l 0 436 l 2 436 l 0 441 l 2 461 q 0 475 2 463 l 12 554 q 109 744 31 652 q 271 877 187 825 q 378 995 342 930 q 456 1112 422 1077 q 561 1164 503 1154 m 529 1029 q 608 949 544 949 l 612 947 q 692 1015 669 947 l 692 1036 q 629 1110 692 1088 q 615 1112 615 1110 q 529 1029 529 1099 m 680 262 l 680 256 q 705 231 684 231 l 710 231 q 734 256 734 234 l 734 262 q 705 287 734 283 q 680 262 680 279 z "},"D":{"ha":766,"x_min":0,"x_max":753,"o":"m 214 1161 q 355 1133 323 1147 q 485 1069 412 1115 q 602 976 538 1036 q 635 937 602 970 q 741 705 719 821 l 738 705 l 747 674 q 745 672 747 672 q 751 630 747 644 l 749 617 q 751 610 751 612 l 749 610 l 751 606 l 751 588 l 753 575 q 751 568 751 571 q 753 559 751 564 q 751 535 751 545 l 751 529 q 749 526 751 526 q 751 524 749 524 q 736 443 747 475 l 738 438 q 694 333 709 350 q 485 113 636 218 q 366 53 385 53 q 236 9 346 35 q 233 7 236 7 l 229 9 l 205 2 q 201 4 201 2 l 178 2 l 154 2 q 145 0 149 2 q 101 31 101 15 q 92 60 97 39 q 95 68 95 63 l 90 75 q 101 101 93 75 q 141 203 141 166 l 141 210 q 95 351 141 258 q 77 434 77 414 l 79 438 q 77 445 77 443 l 79 445 q 77 447 79 447 q 115 542 90 517 q 165 570 138 566 q 229 522 213 570 q 233 491 233 501 q 220 390 233 429 l 222 385 q 214 300 214 311 q 324 152 214 152 q 388 161 368 157 l 392 159 q 511 227 433 167 q 623 436 576 279 q 621 438 623 438 q 630 540 630 478 q 623 575 623 573 l 626 579 q 575 720 606 681 q 547 751 565 736 q 471 787 507 787 l 465 787 q 353 709 404 787 q 231 612 309 641 q 205 608 209 610 q 97 663 145 608 q 16 808 22 756 q 0 923 4 844 l 2 945 l 0 956 l 11 1004 q 57 1090 23 1058 q 194 1159 111 1159 q 214 1161 195 1161 m 57 974 q 119 895 57 919 l 148 895 q 216 956 193 895 q 218 972 216 968 q 154 1051 218 1027 q 139 1053 139 1051 q 60 989 82 1053 q 57 974 60 977 m 117 489 q 141 465 123 465 l 148 465 q 172 494 172 469 q 148 517 166 517 l 141 517 q 117 489 117 517 m 130 64 q 161 35 130 35 q 185 64 181 35 q 157 90 185 86 q 130 64 130 84 z "},"E":{"ha":768,"x_min":0,"x_max":749,"o":"m 384 1162 l 397 1160 l 401 1160 q 463 1158 421 1160 l 463 1156 l 467 1158 q 597 1126 554 1149 q 642 1099 635 1107 q 663 1062 663 1084 q 606 1008 663 1029 q 519 983 592 999 q 517 981 519 981 l 513 983 q 472 974 476 974 q 470 976 472 976 q 393 956 470 972 q 366 944 393 953 q 263 861 293 916 l 254 840 l 256 824 q 252 819 252 823 l 252 812 q 283 772 261 786 q 300 765 292 765 l 307 765 q 327 767 315 765 l 332 765 q 484 824 376 778 q 565 840 527 836 q 568 838 568 840 l 578 840 l 583 840 q 742 711 701 840 l 749 656 l 749 631 q 731 551 749 614 q 733 549 733 551 q 701 477 726 541 q 645 391 683 445 l 588 338 q 422 277 494 277 l 418 279 l 413 277 q 372 290 372 281 l 370 290 l 366 288 q 315 366 315 332 q 311 386 312 366 l 313 391 l 311 395 l 318 443 q 281 509 311 509 l 268 511 q 204 458 234 511 q 177 340 177 396 l 177 300 q 218 161 177 239 q 288 116 270 116 q 304 109 296 109 l 322 109 q 477 172 393 109 q 638 259 580 259 q 711 229 682 254 q 738 184 732 203 q 735 182 738 182 q 738 175 735 179 q 697 84 738 125 q 588 14 668 45 q 586 16 586 14 q 484 0 527 0 q 472 2 479 2 l 467 0 q 279 45 425 0 q 231 50 270 45 q 116 14 200 50 q 77 9 114 12 q 12 75 38 9 q 0 165 2 117 q 2 175 2 170 q 0 177 2 177 q 27 302 0 218 q 61 374 43 342 q 111 467 61 379 q 155 640 155 573 l 155 649 q 152 706 155 658 q 148 711 148 706 l 150 711 q 104 836 150 732 q 45 996 45 925 l 45 1003 q 248 1149 45 1114 q 374 1160 290 1160 q 384 1162 380 1160 m 556 1076 l 556 1074 q 586 1044 559 1044 q 610 1074 606 1044 l 610 1083 q 586 1101 601 1101 l 581 1101 q 556 1076 556 1097 m 519 699 q 602 617 536 617 q 683 683 659 617 q 686 699 683 696 q 620 781 686 757 l 593 781 q 522 715 545 781 q 519 699 522 708 m 610 207 l 610 200 q 635 175 614 175 l 640 175 q 665 200 665 178 l 665 207 q 635 231 665 227 q 610 207 610 224 z "},"F":{"ha":806,"x_min":0,"x_max":792,"o":"m 610 1164 q 710 1133 652 1164 q 770 1070 749 1106 q 783 1030 783 1038 l 790 1015 l 787 1010 l 790 1006 l 787 1001 q 792 981 792 987 l 792 968 q 790 959 792 963 q 792 957 790 957 l 787 917 l 790 912 q 730 743 766 809 q 716 719 726 743 q 694 690 694 705 l 692 690 l 688 692 q 576 614 634 632 q 574 616 574 614 l 561 614 q 463 656 496 614 q 431 703 448 670 l 427 705 q 429 712 429 709 q 414 761 414 738 q 398 803 411 761 q 327 874 367 874 q 304 886 326 879 l 294 886 q 285 884 289 886 q 276 886 281 886 q 187 799 214 861 q 178 761 187 794 l 180 757 l 176 741 q 191 683 176 711 q 189 676 189 679 q 220 634 203 651 q 314 585 260 604 q 378 534 378 554 q 387 512 385 534 q 356 460 387 483 q 280 436 302 441 l 276 438 l 196 420 q 149 394 170 415 q 118 345 128 376 q 120 342 118 342 l 118 332 l 118 318 q 178 172 118 279 q 182 169 182 172 q 180 163 180 165 q 209 106 197 142 l 212 106 q 207 89 207 93 l 212 87 l 209 82 q 214 78 210 78 q 187 22 203 22 q 142 0 187 8 l 125 0 q 66 35 97 5 q 24 134 33 78 q 20 149 22 134 q 22 151 20 151 l 20 167 l 20 189 l 22 203 q 20 214 20 206 l 20 216 q 22 218 20 218 q 20 220 22 220 q 60 436 20 258 l 58 441 q 64 463 61 448 q 62 469 62 467 q 66 476 64 476 q 64 478 66 478 q 69 545 69 518 l 66 549 l 71 559 q 69 565 69 563 l 71 565 l 69 570 l 69 574 q 71 581 69 581 l 69 592 l 69 616 q 14 839 69 681 l 0 895 l 2 895 q 0 897 2 897 q 76 1021 0 987 q 222 1048 149 1047 q 427 1106 289 1050 q 556 1155 440 1122 l 592 1162 l 596 1159 l 610 1164 m 574 1028 q 639 948 574 972 l 665 948 q 734 1023 734 964 q 736 1025 736 1023 q 659 1108 736 1090 q 576 1044 599 1108 q 574 1028 576 1028 m 287 523 q 311 500 296 500 l 318 500 q 342 525 342 505 l 342 530 q 325 554 342 543 l 311 554 q 287 523 290 554 m 120 89 q 147 60 125 60 l 151 60 q 176 85 170 60 l 176 89 q 147 116 176 112 q 120 89 120 106 z "},"G":{"ha":1244,"x_min":0,"x_max":1231,"o":"m 731 1164 l 800 1155 q 807 1157 804 1157 q 907 1102 907 1127 q 924 1072 918 1102 q 926 1069 926 1072 q 878 1015 909 1027 q 836 998 871 1006 q 833 1000 833 998 l 805 998 l 762 998 q 752 1000 757 998 q 743 998 748 998 q 731 1004 743 1001 q 728 1002 728 1004 l 559 1034 q 550 1031 555 1031 l 550 1034 q 547 1031 547 1034 l 536 1034 l 524 1031 l 519 1034 q 348 998 460 1034 q 252 941 282 963 q 148 812 173 869 q 100 654 107 749 q 98 631 98 642 l 98 612 q 95 602 98 606 q 98 595 98 597 q 95 593 98 593 l 98 581 l 98 557 l 100 543 l 98 538 q 100 531 100 534 l 98 526 q 107 495 104 500 q 104 488 104 490 q 109 484 109 488 q 107 476 107 479 q 117 450 111 476 q 214 267 159 338 q 353 169 286 193 q 467 138 431 138 q 469 140 469 138 q 507 136 491 136 q 684 200 610 136 q 726 295 726 245 q 659 397 726 359 q 412 509 463 465 q 340 610 355 558 q 328 643 328 629 q 331 645 328 645 l 328 657 l 328 676 q 369 793 328 733 q 528 890 441 871 q 593 898 569 898 q 667 888 667 893 l 671 890 q 857 726 774 863 q 892 648 879 686 q 890 640 890 643 q 898 626 895 640 q 936 690 900 626 q 1064 800 997 777 l 1126 814 q 1231 731 1231 799 l 1231 724 q 1185 629 1231 681 q 1152 605 1180 627 q 1004 514 1017 542 q 974 469 974 474 q 945 412 974 463 q 819 162 882 239 q 712 69 758 92 q 522 3 656 24 q 488 0 499 3 q 467 3 479 3 l 462 0 q 416 9 416 7 l 412 7 q 281 43 306 25 q 157 134 226 66 q 19 378 62 237 q 22 386 22 383 q 7 460 16 386 q 5 462 5 460 l 7 467 q 0 498 5 492 l 3 503 q 0 505 3 505 l 3 517 l 3 538 q 0 559 3 547 q 3 567 3 564 q 0 574 0 571 l 5 576 q 0 600 3 581 l 14 684 q 19 700 14 690 q 17 709 17 704 q 52 807 45 793 l 98 888 q 207 1000 163 970 q 312 1067 244 1032 q 429 1114 359 1093 q 662 1157 569 1157 q 698 1162 662 1160 l 703 1160 q 731 1164 724 1162 m 810 1074 q 838 1048 818 1048 q 869 1078 869 1050 q 838 1107 869 1103 q 810 1074 813 1107 m 388 686 q 476 597 404 597 q 559 674 559 616 l 559 690 q 476 771 559 755 q 388 686 388 755 m 1124 726 q 1152 698 1131 698 q 1183 726 1183 703 q 1150 757 1183 757 q 1124 726 1128 757 z "},"H":{"ha":809,"x_min":0,"x_max":791,"o":"m 277 1164 q 396 1137 362 1164 q 441 1097 410 1137 l 450 1087 q 467 1042 463 1058 q 465 1039 467 1039 l 467 1029 l 467 1004 q 465 1002 467 1002 l 467 998 q 446 918 467 970 q 416 844 446 904 l 418 840 l 400 795 l 402 791 q 383 710 393 779 l 383 704 q 427 593 383 612 l 435 589 q 441 591 439 591 l 452 589 q 523 637 498 603 q 566 750 543 668 q 564 756 564 754 q 585 844 568 756 q 591 871 585 848 l 591 889 q 614 981 597 900 q 650 1060 637 1046 q 648 1066 648 1064 q 692 1093 682 1093 l 706 1093 q 768 1048 750 1093 q 781 991 778 991 q 779 985 779 987 q 766 838 774 854 l 768 833 q 748 727 754 779 l 731 654 q 733 646 733 650 l 727 635 l 729 631 l 721 602 q 723 600 721 600 l 714 533 l 716 529 q 714 521 716 524 q 716 519 714 519 l 712 496 q 714 494 712 494 l 712 479 l 712 456 q 710 437 712 449 l 719 400 q 716 393 719 397 q 725 354 721 361 q 723 348 723 350 l 743 260 q 789 125 789 146 q 791 90 789 118 l 789 85 q 791 83 789 83 q 785 52 789 52 q 787 50 785 50 q 750 12 787 28 q 733 10 742 10 q 694 39 709 20 q 679 71 679 62 q 654 198 663 103 l 656 202 l 654 206 l 656 210 l 654 223 q 656 225 654 225 q 652 243 654 243 l 654 254 l 654 258 q 650 302 654 276 l 652 302 q 648 313 648 309 l 650 313 q 646 333 647 316 q 648 335 648 333 q 644 340 644 335 l 644 342 l 646 346 q 629 398 643 349 l 606 441 q 527 494 580 481 q 515 496 526 494 q 502 494 513 496 l 498 496 q 408 465 454 492 q 358 391 361 416 q 333 283 333 333 l 335 279 q 333 271 333 275 l 333 256 q 331 254 333 254 l 333 250 l 333 227 q 331 218 333 222 l 333 214 q 331 165 331 185 l 331 148 q 327 144 331 144 l 329 140 q 292 27 306 27 q 262 0 292 16 l 254 0 q 252 2 252 0 l 248 0 q 200 31 218 0 q 187 71 187 52 l 185 71 q 239 227 185 127 q 271 327 252 254 q 269 335 269 331 l 271 344 l 269 348 q 273 364 273 355 l 273 400 q 252 523 267 477 q 245 541 248 523 q 241 546 241 541 l 241 548 l 243 552 q 218 604 241 552 q 181 658 208 625 q 75 783 135 720 q 39 831 75 786 q 2 916 12 876 q 4 922 4 920 q 0 935 0 930 l 0 945 q 2 954 0 950 l 0 958 q 29 1039 15 1025 q 109 1114 57 1084 q 277 1164 186 1157 m 262 1025 q 338 947 277 947 q 414 1023 414 962 q 338 1100 401 1100 q 264 1039 287 1100 q 262 1025 264 1027 m 687 1033 l 687 1031 q 712 1004 690 1004 l 714 1004 q 739 1031 735 1004 q 714 1056 733 1056 q 687 1033 687 1053 m 712 90 l 712 85 q 735 62 715 62 l 741 62 q 764 90 760 62 q 741 113 758 113 l 735 113 q 712 90 712 109 m 225 66 q 248 43 231 43 l 254 43 q 277 71 275 43 q 254 94 272 94 l 248 94 q 225 66 229 94 z "},"I":{"ha":488,"x_min":0,"x_max":473,"o":"m 213 1160 q 283 1107 264 1160 l 292 1070 l 290 1065 l 292 1053 q 290 1046 292 1046 q 292 1040 290 1044 q 283 941 289 943 q 286 939 283 939 q 281 920 283 924 q 283 913 283 916 q 279 909 279 912 l 279 877 q 275 872 279 872 l 277 868 l 277 866 l 269 806 q 271 804 269 804 q 267 722 267 773 q 269 715 269 718 l 264 713 l 267 703 l 267 696 q 264 679 267 687 q 271 631 267 647 q 269 629 271 629 q 305 492 286 532 q 340 425 326 447 q 423 320 401 342 q 471 195 471 261 q 473 193 473 195 q 443 97 473 149 q 376 43 410 54 l 337 22 l 333 24 q 277 7 315 13 l 239 2 l 239 4 l 234 2 l 210 2 q 202 0 205 2 q 195 4 195 2 l 191 2 q 123 17 123 8 q 116 15 118 15 q 62 41 68 41 q 41 64 62 47 q 9 120 27 83 l 13 123 q 4 140 13 124 l 7 144 q 0 161 0 159 l 2 174 l 0 184 l 4 187 q 0 200 0 194 q 7 228 4 200 q 101 355 22 283 q 142 404 119 368 q 178 492 163 430 q 197 627 197 583 l 197 651 q 200 657 197 657 l 197 668 l 197 690 q 178 840 189 819 q 153 943 178 847 q 138 1031 144 985 q 151 1107 138 1065 l 155 1109 l 153 1113 q 197 1154 180 1154 q 213 1160 198 1158 m 174 1087 l 174 1081 q 202 1057 174 1061 q 226 1081 226 1062 l 226 1087 q 197 1111 222 1111 q 174 1087 174 1104 m 62 172 q 136 94 76 94 q 140 92 136 92 q 219 170 219 107 q 140 250 205 250 q 64 176 64 235 q 62 172 62 176 z "},"J":{"ha":1041,"x_min":0,"x_max":1032,"o":"m 195 1160 q 197 1158 197 1160 l 208 1160 l 212 1160 q 286 1158 236 1160 q 293 1154 286 1154 q 515 1071 387 1154 q 560 1028 560 1034 q 741 1124 631 1099 q 797 1131 781 1126 q 867 1118 851 1126 l 872 1120 q 987 1049 954 1086 q 1030 951 1030 993 q 1032 945 1032 951 q 1019 913 1030 945 q 981 889 1000 892 q 917 923 940 896 q 870 996 907 930 q 795 1051 841 1039 q 774 1058 774 1055 l 769 1056 q 763 1058 763 1056 q 665 1021 730 1058 q 635 996 665 1019 q 588 859 588 928 l 585 859 q 588 857 585 857 l 585 848 l 588 838 q 585 831 585 833 q 588 829 585 829 l 585 814 q 616 639 585 761 q 631 577 619 639 q 633 575 633 577 l 633 562 q 641 526 637 526 q 639 519 641 524 q 646 453 643 486 l 643 449 q 646 414 646 427 l 646 397 q 648 389 646 393 q 641 321 641 360 q 637 316 637 320 l 637 295 q 594 171 637 279 q 570 143 587 157 q 528 85 570 132 q 466 39 469 39 q 301 0 395 0 l 301 2 q 299 0 299 2 q 68 126 153 0 q 0 319 24 175 l 0 393 q 26 528 0 446 q 73 624 43 581 q 188 729 153 722 q 250 752 217 752 q 291 759 273 759 l 293 759 q 295 757 295 759 l 299 759 l 314 759 q 438 694 376 759 q 479 581 479 628 q 481 562 479 570 l 479 562 q 483 545 483 551 l 481 541 l 483 536 q 481 530 483 534 l 483 519 l 481 509 l 483 505 q 462 404 473 433 l 464 399 q 423 321 444 352 q 355 271 392 278 q 349 269 353 271 q 252 284 325 269 l 233 284 q 190 241 208 284 q 188 216 188 231 q 319 122 188 152 q 342 126 339 126 q 351 124 346 124 q 393 135 351 127 q 436 160 393 138 q 468 195 436 163 q 532 310 532 283 q 549 361 538 321 l 547 366 l 549 370 q 547 376 547 374 q 557 442 553 376 l 557 468 q 555 477 557 473 q 560 483 557 483 q 530 703 551 635 l 528 703 q 530 705 528 705 q 481 814 515 760 q 459 848 481 823 q 349 964 435 890 q 325 981 343 964 q 162 1062 281 1008 q 98 1107 136 1062 l 98 1112 q 126 1147 98 1137 q 195 1160 162 1160 m 160 1103 q 184 1079 167 1079 l 190 1079 q 216 1107 210 1079 q 190 1133 209 1133 l 184 1133 q 160 1103 163 1133 m 943 962 q 968 938 943 944 l 970 938 q 996 966 991 938 q 970 991 990 991 q 943 962 943 991 m 243 626 q 319 547 243 564 l 321 547 q 399 626 399 562 q 321 703 399 688 q 245 639 267 703 q 243 626 245 629 z "},"K":{"ha":832,"x_min":0,"x_max":819,"o":"m 593 1162 l 609 1162 q 642 1158 642 1162 l 646 1160 l 649 1160 q 758 1089 706 1142 q 797 1003 782 1051 l 806 968 q 804 965 804 968 q 814 917 808 965 l 812 912 q 817 899 817 905 q 814 895 817 895 q 819 868 818 873 q 810 788 814 788 q 812 786 810 786 q 800 733 810 760 q 802 726 802 728 l 762 655 l 733 631 q 664 611 705 611 q 549 640 636 611 q 516 642 530 642 l 505 642 l 494 640 l 494 642 q 445 627 458 636 q 368 567 411 627 q 352 532 361 546 q 345 505 352 527 q 348 496 348 501 q 345 494 348 494 l 348 490 l 345 478 q 357 443 352 478 q 363 432 358 443 q 361 423 361 428 q 441 310 397 355 q 585 206 519 241 q 704 77 704 121 l 702 73 l 704 68 q 664 22 692 22 l 653 22 q 518 84 579 22 q 476 124 496 109 q 390 252 476 128 q 294 378 369 296 q 212 441 240 439 q 166 412 195 441 l 142 361 l 142 359 q 144 352 144 355 q 131 281 136 352 l 128 281 l 131 277 l 131 261 q 133 252 131 256 q 131 250 133 250 q 137 191 134 205 q 135 189 137 189 l 140 151 l 135 113 q 137 106 137 109 q 53 0 125 0 q 2 62 7 0 l 2 64 q 5 71 5 68 l 0 80 q 47 224 0 113 q 64 345 64 291 q 62 348 64 348 l 64 359 l 64 408 l 62 423 l 64 423 l 62 427 l 62 436 q 44 558 50 558 l 42 558 q 44 567 42 563 l 18 775 l 20 779 l 18 784 q 20 786 18 786 l 18 797 l 18 821 q 20 824 18 824 q 18 830 18 828 l 20 835 q 18 844 18 839 l 22 846 q 20 848 22 848 q 56 1010 31 935 q 122 1116 79 1072 q 166 1138 149 1138 l 182 1138 q 226 1094 212 1138 l 228 1083 q 226 1065 226 1071 l 228 1056 q 208 1005 215 1014 q 210 1003 210 1005 q 115 751 127 862 l 111 713 l 113 709 q 111 691 111 696 q 157 637 111 654 l 170 640 l 175 637 q 235 677 222 651 q 301 804 261 705 l 374 970 q 392 996 378 970 q 436 1067 408 1025 q 560 1156 495 1138 l 576 1160 l 576 1158 q 593 1162 584 1162 m 144 1072 q 173 1047 144 1051 q 199 1076 194 1047 q 173 1103 193 1103 q 144 1072 144 1103 m 541 1021 q 607 943 541 965 q 620 941 616 943 q 700 1019 700 954 q 702 1021 702 1019 q 637 1101 702 1078 q 620 1103 629 1101 q 543 1025 543 1088 l 541 1021 m 609 102 l 609 98 q 627 73 609 83 l 635 73 q 662 91 654 73 l 662 109 q 637 126 652 126 l 627 126 q 609 102 609 117 m 38 75 l 38 71 q 62 47 41 47 l 68 47 q 93 75 89 47 q 68 100 85 100 l 62 100 q 38 75 38 96 z "},"L":{"ha":598,"x_min":0,"x_max":587,"o":"m 149 1162 q 166 1158 157 1158 q 170 1162 167 1162 q 340 1105 227 1162 l 406 1055 q 470 935 470 979 q 476 932 472 935 q 474 924 476 932 q 478 896 478 905 l 476 896 l 478 891 l 478 878 q 476 869 478 873 q 478 861 478 865 l 474 859 l 476 854 l 476 852 q 465 810 472 846 q 454 787 457 787 q 456 780 456 782 q 328 581 433 718 q 225 393 260 479 l 197 295 q 199 288 199 291 q 190 249 194 288 q 188 247 188 249 q 190 240 188 245 q 188 216 188 225 l 190 212 q 186 199 186 203 q 223 111 186 151 q 277 90 262 90 l 288 90 q 431 168 340 90 q 520 203 477 203 l 522 203 q 579 164 557 203 l 587 127 l 585 127 q 587 125 585 125 q 568 72 581 87 l 570 68 q 548 50 566 68 q 411 4 492 4 l 304 20 q 299 24 299 20 q 297 22 297 24 q 245 26 269 26 q 238 24 242 26 l 234 26 q 125 0 224 26 l 100 0 q 55 52 55 22 q 41 116 43 52 q 46 149 43 146 q 41 153 41 149 q 61 247 47 162 q 77 290 64 247 q 102 411 92 338 l 105 411 q 102 417 105 413 q 107 441 105 437 q 105 444 107 444 l 107 458 l 107 498 q 109 517 107 506 q 96 590 105 553 l 98 590 q 70 694 81 667 q 50 753 59 739 q 52 760 52 758 q 33 821 47 764 q 26 830 31 821 l 26 832 q 28 834 26 834 q 11 902 18 859 q 0 983 0 928 l 2 983 q 0 989 0 987 q 77 1138 0 1085 q 149 1162 111 1156 m 72 1025 q 133 946 72 970 q 151 943 149 946 q 229 1018 229 958 l 229 1034 q 166 1101 229 1080 q 153 1103 156 1101 q 75 1040 98 1103 q 72 1025 75 1025 m 485 144 q 509 120 491 120 l 515 120 q 540 149 536 120 q 515 172 532 172 l 509 172 q 485 144 489 172 z "},"M":{"ha":1181,"x_min":0,"x_max":1163,"o":"m 862 1163 l 862 1160 l 867 1163 l 892 1163 q 911 1158 903 1163 q 914 1160 914 1158 q 959 1151 951 1157 l 964 1153 l 969 1153 q 1086 1076 1025 1133 q 1128 1001 1126 1022 q 1151 901 1141 1001 l 1148 901 q 1151 899 1148 899 q 1148 892 1151 897 q 1151 882 1148 886 q 1148 854 1148 865 l 1148 837 l 1143 819 q 1145 817 1143 817 q 1131 757 1139 773 l 1133 752 q 1061 563 1133 747 q 1038 486 1038 492 l 1036 486 q 1038 483 1036 483 q 1034 466 1038 478 q 1036 463 1034 463 l 1034 451 l 1034 446 l 1038 438 q 1031 436 1034 436 q 1066 319 1042 356 q 1099 259 1068 311 l 1133 209 l 1160 147 l 1158 142 l 1163 132 q 1160 125 1163 130 q 1163 110 1160 123 q 1160 95 1160 96 q 1163 87 1163 90 q 1141 50 1160 87 q 1071 27 1110 27 l 1068 27 l 1053 35 q 1046 33 1048 33 q 974 127 983 83 q 954 167 972 128 l 956 172 q 934 286 941 214 l 937 296 q 934 309 934 300 q 937 311 934 311 q 934 314 937 314 q 939 344 937 344 l 937 349 l 937 353 q 954 446 941 366 q 971 508 958 449 q 1048 732 1048 697 l 1053 734 l 1051 740 q 1056 745 1052 745 q 1053 747 1056 747 l 1059 792 l 1056 797 q 1061 814 1061 810 l 1059 829 l 1061 834 q 1056 857 1059 839 q 1059 864 1059 861 q 1038 929 1055 865 q 911 1001 979 1001 q 904 1004 911 1004 q 764 947 829 1004 q 718 884 741 922 q 677 794 701 859 l 680 789 q 660 670 660 713 l 663 658 q 658 652 658 656 l 663 645 l 663 618 q 670 597 670 606 l 667 597 l 675 570 q 673 568 673 570 q 688 543 675 568 q 685 541 688 541 q 722 473 701 503 q 789 384 730 456 q 882 229 876 269 q 894 170 894 209 q 849 62 894 111 q 658 10 787 10 l 627 10 q 603 15 603 10 l 597 12 l 593 15 q 590 12 590 15 q 441 60 551 12 l 391 100 q 304 237 333 155 l 307 249 q 301 286 307 258 q 307 292 307 286 l 301 299 q 361 468 304 351 q 433 620 406 542 q 441 645 435 638 l 441 648 l 438 652 q 446 680 444 652 q 444 688 444 685 q 451 732 451 688 l 448 749 l 453 752 q 451 760 451 757 q 453 762 451 762 l 448 794 l 451 794 l 448 800 l 448 810 q 371 949 448 874 q 326 962 335 962 l 311 962 q 184 871 243 962 q 125 697 125 753 q 119 688 121 688 l 122 682 l 122 677 l 117 670 l 117 635 q 115 633 117 633 l 117 627 q 115 618 117 622 q 117 590 117 601 l 117 581 q 115 570 117 574 q 122 536 117 549 q 119 533 122 533 q 177 363 137 428 q 186 338 177 359 q 224 269 197 311 q 252 207 224 262 q 264 162 252 193 l 262 157 q 269 127 267 146 q 204 12 269 33 q 167 0 203 11 l 157 5 q 149 3 152 3 q 117 15 149 6 q 62 87 69 53 q 27 182 44 113 l 30 186 q 7 323 18 212 q 10 326 7 326 q 3 391 10 332 q 5 393 3 393 l 3 406 l 3 466 q 0 475 3 471 q 3 486 3 480 q 0 490 3 490 l 3 503 l 3 566 l 0 570 q 5 575 5 570 l 5 590 q 7 612 5 600 l 5 618 q 20 690 11 675 q 18 697 18 694 q 35 772 33 768 q 33 774 35 774 q 130 981 61 899 q 192 1038 130 986 q 326 1081 279 1081 q 329 1078 329 1081 l 344 1081 q 456 1053 418 1074 q 530 994 497 1033 q 560 949 557 967 l 566 949 q 682 1091 587 1002 q 840 1158 762 1148 l 840 1156 q 862 1163 853 1163 m 650 182 q 740 90 667 90 q 829 167 808 90 l 829 192 q 757 269 829 244 q 740 271 743 269 q 652 199 680 271 q 650 182 652 182 m 1061 115 q 1091 82 1065 82 l 1093 82 q 1123 115 1119 82 q 1091 144 1123 140 q 1061 115 1061 138 m 159 102 l 159 95 q 186 67 165 67 l 192 67 q 219 95 219 71 l 219 102 q 186 130 219 130 q 159 102 165 130 z "},"N":{"ha":901,"x_min":0,"x_max":890,"o":"m 717 1163 q 720 1160 720 1163 l 732 1163 l 737 1163 q 782 1128 760 1156 q 789 1100 782 1122 l 787 1088 l 787 1065 q 770 977 787 1015 l 772 972 q 722 842 749 931 q 702 745 709 792 q 705 742 702 742 q 699 684 699 705 q 737 556 715 588 q 810 474 764 517 q 887 341 880 398 l 887 311 l 890 306 l 885 303 l 887 298 q 872 241 877 241 l 875 235 q 827 151 838 163 q 534 0 703 0 l 526 0 q 524 3 524 0 q 522 0 522 3 q 406 30 477 0 q 321 176 321 90 l 321 191 q 326 208 321 208 l 323 213 l 323 216 q 389 408 341 279 q 411 534 408 492 l 408 539 q 411 547 411 544 l 406 549 l 408 562 l 408 572 q 323 847 408 699 q 218 932 267 923 q 208 935 214 935 q 153 900 153 922 q 130 854 146 890 q 133 852 130 852 l 130 835 l 130 829 q 176 649 143 718 l 251 489 q 288 281 288 378 q 283 241 288 241 l 286 235 l 266 161 q 191 50 228 73 q 148 20 182 39 q 118 12 148 17 l 113 15 l 108 12 q 35 45 53 23 q 0 138 0 74 q 5 158 3 158 l 3 163 q 75 256 29 231 l 136 303 q 185 401 185 344 l 185 406 q 183 416 185 412 q 185 418 183 418 q 145 556 185 463 l 105 649 q 60 747 68 718 q 22 897 22 831 l 20 897 q 145 1113 20 1055 q 210 1128 189 1128 l 220 1125 l 233 1128 q 418 1002 332 1128 q 466 925 466 937 q 576 574 514 844 q 599 486 589 513 q 597 484 597 486 q 624 449 614 454 q 662 509 662 449 q 664 511 664 509 l 659 554 l 662 554 l 616 764 q 609 792 616 772 q 612 800 612 797 q 604 804 604 802 l 606 817 l 604 829 q 606 832 604 832 q 599 875 603 863 q 602 878 599 878 l 599 895 l 599 935 l 597 950 q 604 995 600 986 q 602 998 604 998 q 649 1128 622 1109 q 712 1163 671 1154 l 717 1163 m 687 1100 l 687 1095 q 714 1067 691 1067 l 722 1067 q 749 1098 743 1067 q 722 1128 743 1128 l 714 1128 q 687 1100 687 1124 m 386 180 q 464 90 386 115 l 479 90 q 569 168 545 90 l 569 183 q 496 271 569 247 q 474 273 483 273 q 389 201 413 273 q 386 180 386 186 m 40 115 l 40 113 q 70 83 46 83 l 73 83 q 103 113 103 89 l 103 123 q 73 145 90 145 l 70 145 q 40 115 40 140 z "},"O":{"ha":878,"x_min":0,"x_max":858,"o":"m 463 1164 l 465 1160 q 472 1162 470 1162 q 475 1160 475 1162 l 486 1162 l 517 1162 l 530 1160 q 533 1162 533 1160 q 572 1157 560 1157 q 580 1160 577 1160 q 636 1139 619 1149 q 638 1141 638 1139 q 711 1105 698 1120 q 785 1042 736 1095 q 795 1019 789 1042 l 811 998 q 809 989 809 994 q 825 956 812 989 q 823 954 825 954 q 830 926 827 944 q 827 919 827 921 q 835 911 831 919 q 832 893 835 909 q 837 867 837 876 l 835 867 l 837 863 l 837 858 l 832 851 q 835 842 832 846 l 832 837 q 835 830 835 832 q 818 774 830 830 q 729 624 770 661 q 701 598 729 621 q 671 572 690 583 q 624 545 632 545 q 535 514 584 524 q 533 517 535 517 q 528 512 533 512 q 522 514 524 514 q 519 512 519 514 l 507 514 l 498 514 q 391 554 448 514 q 378 575 387 557 q 365 596 374 575 q 341 648 357 596 q 339 654 341 650 q 367 788 348 761 q 388 844 388 834 l 388 860 q 334 909 388 893 q 182 767 243 909 l 157 704 q 159 696 159 699 q 154 690 154 696 l 157 685 q 140 629 144 629 l 142 624 l 142 612 q 138 608 142 608 l 140 596 l 140 587 q 138 585 140 585 l 140 580 l 138 575 q 140 572 138 572 q 136 528 137 533 q 138 522 138 524 q 136 519 138 519 q 142 486 138 492 q 140 479 140 481 l 142 470 q 140 463 140 465 q 145 451 145 455 l 142 446 q 150 425 146 433 q 147 418 147 421 l 157 393 l 154 388 q 203 264 174 319 l 227 222 q 302 136 245 180 l 330 112 q 463 75 414 76 q 526 87 526 75 l 538 84 q 624 126 572 92 q 661 163 624 129 q 718 332 718 235 q 720 339 720 336 q 718 357 718 348 l 718 362 q 720 372 718 368 q 718 378 718 376 q 720 397 718 385 q 718 418 718 410 l 720 418 l 718 423 q 720 433 718 429 q 718 441 718 437 l 720 446 q 718 449 720 449 q 748 589 727 542 q 811 629 770 629 q 853 580 827 628 q 851 577 853 577 q 858 530 853 549 q 842 423 853 454 l 844 418 q 800 283 827 346 q 769 220 779 234 q 699 121 769 206 q 549 23 633 54 l 526 9 q 524 12 524 9 l 519 9 l 507 9 q 505 12 505 9 q 456 0 492 5 q 454 2 454 0 l 441 0 q 262 40 329 0 q 98 194 186 72 q 68 250 98 198 l 42 313 q 44 315 44 313 q 26 372 40 315 q 12 423 18 414 l 14 433 q 5 500 9 449 l 5 528 q 2 538 5 534 q 5 547 5 542 l 2 556 q 5 559 5 556 q 0 564 0 559 q 7 582 5 564 l 5 587 q 23 711 12 673 l 21 715 q 133 979 66 892 q 264 1103 182 1052 q 407 1155 366 1155 l 463 1164 m 601 935 q 669 851 601 876 q 685 848 682 851 q 771 932 755 848 q 696 1017 771 998 l 675 1017 q 603 949 627 1017 l 601 935 m 762 543 q 790 512 767 512 q 821 545 821 512 q 792 570 821 564 l 790 570 q 762 543 762 565 z "},"P":{"ha":656,"x_min":0,"x_max":725,"o":"m 355 1159 l 447 1146 q 522 1123 495 1135 q 524 1125 522 1125 q 577 1090 553 1109 q 663 1007 625 1060 q 716 877 709 939 q 725 838 719 876 l 723 834 q 725 827 725 830 l 723 823 l 725 819 l 723 808 q 725 806 723 806 l 723 795 l 723 793 q 725 783 723 786 l 721 762 q 723 755 723 757 q 719 749 721 749 l 721 744 q 644 569 699 636 q 532 494 574 501 q 492 490 528 494 l 460 490 q 398 528 433 494 q 359 597 382 528 q 349 652 349 628 q 398 766 349 733 q 426 777 417 777 l 430 774 q 438 777 433 777 l 443 777 q 471 759 464 765 q 488 716 488 736 q 462 605 488 696 l 466 577 q 464 575 464 577 q 486 552 483 552 q 500 547 500 552 l 505 549 l 513 547 l 522 552 l 526 549 q 610 623 586 571 l 627 656 l 625 661 q 640 699 631 669 q 637 706 637 703 q 644 729 641 713 l 642 734 l 644 738 q 642 740 644 740 q 646 757 643 757 l 644 762 l 646 766 q 644 772 644 770 q 646 774 644 774 q 642 798 643 793 l 644 802 q 629 868 637 852 q 631 875 631 872 q 616 907 624 876 q 595 943 599 927 q 496 1012 530 1009 q 443 1016 496 1015 q 366 988 409 1016 q 325 939 333 964 q 295 864 312 923 q 287 821 294 863 q 289 810 289 818 q 287 808 289 808 q 289 806 287 806 q 282 762 284 762 q 284 755 284 757 l 282 751 q 287 727 287 739 l 284 723 q 338 528 302 614 q 336 526 338 526 q 441 321 398 385 q 438 319 441 319 q 479 229 465 264 q 481 227 481 229 q 479 224 481 224 q 492 178 486 205 q 490 176 492 176 q 494 143 492 149 q 469 71 488 94 q 385 15 431 27 q 310 0 371 9 l 310 2 l 306 0 q 299 2 299 0 l 289 0 l 265 0 q 90 54 183 0 q 28 120 37 101 q 0 195 0 165 l 0 233 q 4 254 1 254 l 2 259 q 15 297 9 268 q 45 361 36 347 q 113 484 45 367 q 148 556 140 549 l 145 560 l 145 562 q 180 699 168 598 l 180 729 q 178 738 180 734 q 180 740 178 740 l 178 751 l 178 770 q 173 787 178 779 l 176 791 q 156 845 168 827 q 139 886 156 858 l 141 890 q 111 937 134 896 q 64 1012 96 952 l 66 1016 l 62 1031 q 90 1078 73 1078 q 220 1140 125 1112 q 355 1159 314 1159 m 100 1040 q 130 1012 100 1012 q 154 1040 154 1015 q 124 1065 154 1061 q 100 1040 100 1057 m 402 719 q 430 691 404 691 l 432 691 q 456 719 452 691 q 428 744 456 739 q 402 719 402 739 m 280 156 q 357 75 294 75 q 434 137 412 75 q 436 152 434 149 q 361 229 424 229 q 357 231 361 231 q 284 173 307 231 q 280 156 282 156 z "},"Q":{"ha":904,"x_min":0,"x_max":892,"o":"m 478 1160 q 485 1156 485 1158 q 492 1158 490 1158 q 621 1104 577 1140 q 688 1035 682 1056 q 744 901 731 984 l 755 829 l 753 816 l 753 809 q 755 800 753 804 q 753 791 753 796 l 753 789 q 758 769 753 783 q 753 764 753 768 l 753 747 q 744 702 749 702 l 747 697 q 688 579 729 612 q 637 561 675 567 l 626 561 q 568 624 568 592 q 561 642 566 624 q 606 724 561 688 q 673 849 668 810 q 677 885 677 859 l 677 892 q 642 1006 677 945 q 547 1078 596 1055 q 476 1095 480 1095 q 474 1093 474 1095 l 463 1095 l 436 1095 q 257 1021 352 1095 q 176 928 193 962 q 132 816 152 892 q 125 795 132 806 l 125 793 q 121 758 125 768 l 123 753 q 119 747 121 747 l 121 742 q 119 697 119 712 l 116 697 q 154 525 125 610 q 181 465 159 504 q 179 463 179 465 q 210 418 184 463 q 252 376 212 418 q 297 342 294 342 q 351 311 297 333 q 425 295 383 295 q 476 313 476 307 q 483 311 480 311 q 530 395 530 349 q 536 420 531 395 l 534 425 q 561 500 541 473 q 624 534 600 534 q 626 536 624 536 l 668 536 q 780 474 714 532 q 878 315 861 387 q 892 246 882 315 l 890 246 l 892 241 l 892 237 q 890 235 892 235 q 892 233 890 233 q 869 143 885 173 q 831 94 856 116 q 693 16 794 50 q 637 0 637 3 q 633 2 633 0 q 608 0 612 0 q 566 2 601 0 q 557 0 557 0 q 400 31 498 0 q 226 130 287 74 q 116 250 149 200 q 54 371 75 307 q 24 438 32 426 l 24 440 l 27 445 q 14 494 18 488 l 14 496 q 16 498 14 498 q 9 521 9 516 l 11 521 l 2 574 q 5 583 5 578 q 2 590 2 588 l 5 590 q 2 592 5 592 q 5 599 2 595 q 0 619 2 615 q 2 628 2 623 q 0 637 2 633 l 5 655 q 2 657 5 657 q 47 869 2 747 q 152 1026 78 947 q 224 1088 178 1057 q 422 1158 307 1147 l 431 1156 l 478 1160 m 619 642 l 619 635 q 648 610 623 610 q 673 635 673 614 l 673 642 q 644 666 673 662 q 619 642 619 659 m 590 398 q 655 317 590 340 q 671 315 667 317 q 751 378 726 315 q 753 395 751 393 q 673 478 738 478 q 592 414 616 478 q 590 398 592 401 z "},"R":{"ha":783,"x_min":0,"x_max":764,"o":"m 365 1159 l 370 1157 q 372 1159 372 1157 l 382 1157 l 410 1157 q 480 1147 480 1152 l 491 1149 l 566 1127 q 720 974 685 1067 l 730 924 q 728 922 730 922 q 732 890 731 895 q 557 720 732 741 q 555 722 555 720 l 545 720 l 525 720 q 446 743 494 724 q 412 816 412 770 l 425 839 l 442 852 q 476 863 473 863 q 572 831 503 863 q 600 824 576 831 l 617 824 l 630 826 q 636 824 634 824 q 658 837 637 828 q 677 878 667 844 l 675 890 l 675 895 q 677 897 675 897 l 664 948 q 604 1023 635 1008 q 521 1059 576 1050 q 435 1067 505 1063 q 239 1021 316 1067 q 207 991 239 1018 q 169 873 169 943 q 197 798 169 844 q 269 741 232 760 q 422 675 372 691 q 640 562 592 611 q 726 457 693 521 q 764 307 764 381 q 762 301 764 305 l 764 288 l 764 279 l 760 273 q 762 267 762 269 l 760 262 l 762 258 q 709 136 744 183 q 643 71 697 115 l 564 24 q 559 19 559 23 l 555 21 l 553 21 q 461 0 486 0 q 455 2 457 2 q 450 0 450 2 q 370 13 410 2 q 301 92 315 45 q 292 149 294 119 l 294 149 l 292 154 l 292 158 q 294 160 292 160 q 292 162 294 162 q 299 186 294 186 q 297 188 299 188 q 303 212 301 212 l 301 216 q 307 222 301 218 l 305 227 l 305 229 q 316 254 313 239 l 331 288 q 333 290 333 288 l 333 292 l 331 297 q 367 370 347 319 l 370 370 l 367 374 l 370 378 q 367 385 367 382 l 372 387 q 370 393 370 391 q 376 435 376 402 q 346 530 376 493 q 282 562 332 550 q 205 508 230 562 l 192 485 q 177 401 184 463 q 179 399 177 399 q 175 359 175 372 q 179 305 178 305 q 177 303 179 303 l 182 227 l 179 222 l 182 210 l 182 190 q 179 188 182 188 q 182 186 179 186 q 152 54 167 72 q 126 17 142 31 l 121 19 q 73 9 121 9 q 24 47 41 18 q 15 81 19 52 l 17 81 l 15 85 q 62 203 15 116 q 113 333 100 283 l 111 337 l 111 340 l 115 346 l 115 355 q 121 408 121 407 l 119 416 q 124 472 124 441 q 121 478 121 476 l 124 478 l 121 482 q 124 485 121 485 q 119 515 121 488 l 121 515 q 115 540 119 535 q 117 543 115 543 q 106 593 113 593 q 109 595 106 595 q 62 764 106 648 l 28 852 l 9 920 l 4 926 q 6 928 4 928 q 2 946 2 937 q 4 948 2 948 q 0 967 2 952 q 32 1046 0 998 q 192 1134 95 1109 q 194 1136 192 1136 l 197 1136 l 207 1134 q 273 1151 218 1143 q 292 1155 287 1151 q 305 1153 304 1153 q 331 1157 320 1157 l 357 1157 q 365 1159 361 1157 m 455 801 q 485 773 455 773 q 508 801 508 777 q 478 826 508 823 q 455 801 455 818 m 355 134 q 429 62 355 77 q 508 139 508 77 q 431 218 508 202 q 355 152 373 218 l 355 134 m 52 94 q 81 68 57 68 q 104 94 104 76 l 104 98 q 81 121 100 121 l 77 121 q 52 94 56 121 z "},"S":{"ha":777,"x_min":0,"x_max":758,"o":"m 397 1159 l 399 1155 q 408 1157 401 1155 q 541 1109 471 1157 q 599 1009 591 1057 q 608 981 599 1005 q 606 979 608 979 l 608 968 l 608 966 q 606 933 608 952 l 608 922 q 564 797 608 872 q 521 768 539 779 l 519 768 q 517 770 517 768 l 508 766 q 506 768 506 766 l 495 766 q 447 799 470 766 q 439 821 443 814 l 439 853 q 443 857 439 857 l 441 862 q 497 957 444 884 q 504 970 497 961 q 519 1022 517 996 q 473 1083 507 1065 q 430 1094 451 1092 l 430 1096 q 423 1094 427 1096 l 408 1096 q 315 1074 338 1090 q 232 957 232 1019 q 235 955 232 955 l 232 944 l 232 929 q 262 857 235 903 q 367 783 330 796 q 586 671 504 718 q 667 602 648 622 q 718 523 708 555 q 753 419 730 523 l 758 369 q 755 362 755 365 q 758 356 755 360 q 749 302 753 307 q 751 293 751 298 q 736 245 747 292 q 580 61 691 128 q 421 11 513 28 l 343 0 q 328 2 334 2 l 315 0 q 300 2 306 2 q 293 0 297 2 q 161 22 231 4 q 37 96 87 43 q 11 154 11 125 q 0 215 7 154 q 7 248 4 246 l 4 252 l 4 256 q 18 300 11 295 l 15 304 l 26 336 q 43 376 29 336 q 148 515 71 436 q 248 575 188 557 q 275 580 254 575 l 304 580 q 399 541 347 580 q 436 465 433 497 q 447 408 439 464 q 445 404 447 404 q 465 315 454 315 q 497 297 465 303 q 545 330 524 297 q 564 378 553 330 q 562 399 562 389 l 562 401 q 564 404 562 404 q 515 519 548 473 q 430 595 456 587 q 401 612 430 598 q 354 640 397 616 q 250 707 312 663 q 170 808 173 779 q 145 890 156 829 l 145 907 q 148 909 145 909 l 145 913 l 145 916 q 154 957 151 950 q 152 966 152 961 l 156 968 l 154 972 q 178 1033 167 1013 q 286 1135 227 1111 l 326 1150 l 330 1148 q 397 1159 360 1157 m 477 838 q 501 814 484 814 l 512 814 q 532 844 532 823 q 501 868 523 868 q 477 838 481 868 m 210 458 q 273 380 210 403 q 289 378 280 380 q 367 441 344 378 q 369 456 367 453 q 291 536 354 536 q 237 515 263 536 q 210 458 210 485 z "},"T":{"ha":680,"x_min":0,"x_max":929,"o":"m 241 1164 l 241 1162 l 245 1164 l 262 1164 q 370 1120 322 1164 q 604 1004 505 1004 q 703 1039 644 1004 q 705 1037 705 1039 q 813 1099 786 1088 q 847 1103 814 1099 q 914 1069 892 1103 q 912 1067 912 1069 q 927 1034 927 1052 l 927 1030 l 925 1019 q 929 1015 929 1019 q 892 964 920 988 q 764 936 832 936 l 764 938 q 762 936 762 938 q 733 940 733 938 l 729 938 q 720 942 720 939 q 523 856 601 942 q 467 749 477 800 q 456 699 463 749 l 456 680 q 454 671 456 675 q 456 663 456 667 l 456 658 q 454 650 456 653 q 456 641 456 646 l 454 637 l 458 624 q 454 613 456 613 l 467 547 q 465 540 465 542 q 486 469 469 540 q 497 445 492 454 l 494 441 q 516 387 501 439 q 514 380 514 383 q 538 303 525 365 q 547 235 547 247 q 527 131 547 172 q 460 35 499 58 q 393 0 429 9 l 385 0 q 376 2 380 0 q 368 0 372 0 q 312 39 312 18 q 301 73 301 56 q 327 142 304 104 q 391 196 357 176 q 463 269 443 231 q 473 299 464 269 q 471 305 471 303 l 475 307 q 432 458 464 408 q 378 587 397 514 l 376 598 l 378 598 q 370 661 374 598 q 368 663 368 661 q 372 690 372 675 l 368 692 q 370 720 370 711 q 368 727 370 723 l 370 740 l 370 751 q 368 770 370 758 l 370 774 q 368 800 368 785 l 321 744 q 213 671 260 690 q 206 673 209 673 q 161 667 206 667 l 142 667 q 41 716 91 667 q 0 830 0 770 l 0 847 q 60 1034 0 943 q 144 1129 70 1063 q 241 1164 220 1164 m 830 1019 q 856 994 836 994 l 861 994 q 884 1017 878 994 l 884 1021 q 856 1047 884 1043 q 830 1019 830 1039 m 62 802 q 140 723 62 738 q 219 802 219 737 q 157 878 219 854 q 142 880 144 878 q 64 819 89 880 q 62 802 64 804 m 336 73 q 363 45 338 45 q 387 68 387 52 l 387 73 q 363 99 385 99 l 359 99 q 336 73 338 99 z "},"U":{"ha":705,"x_min":0,"x_max":690,"o":"m 614 1165 l 624 1163 q 633 1165 625 1163 q 679 1142 661 1158 q 690 1103 690 1109 l 688 1099 l 690 1089 q 644 1004 687 1055 q 617 963 644 1000 q 592 876 599 915 l 589 876 l 594 856 q 589 851 589 854 l 589 848 q 592 837 589 841 l 589 828 q 599 743 594 762 l 596 739 q 603 725 600 725 q 601 718 601 720 l 617 652 l 614 652 q 635 583 627 595 l 633 571 l 644 525 l 642 521 q 665 404 655 486 l 663 399 q 665 390 665 395 q 663 383 663 385 q 667 378 667 382 l 665 365 q 667 362 665 362 l 665 353 q 667 332 665 345 q 661 264 665 282 l 663 259 q 661 250 663 258 q 663 241 663 246 q 654 202 659 241 q 583 80 635 146 q 479 16 543 41 q 406 0 427 0 l 390 0 q 383 2 387 0 q 376 0 378 0 l 367 2 l 362 0 q 232 53 307 5 q 156 165 172 113 q 138 248 142 215 q 140 254 140 252 q 136 271 136 264 q 138 277 138 275 l 136 282 q 138 298 138 291 l 136 302 q 140 323 138 323 q 138 326 140 326 q 151 438 142 374 l 149 443 l 154 454 q 151 475 151 467 l 151 479 q 154 481 151 481 l 151 486 l 151 500 q 154 507 151 507 l 151 518 l 151 521 q 101 736 151 630 l 103 741 q 66 819 98 746 q 0 986 6 921 q 39 1082 0 1039 q 76 1103 43 1082 q 113 1115 94 1112 q 115 1112 115 1115 q 133 1117 133 1114 q 298 1060 218 1117 q 392 963 357 1019 q 448 833 448 867 q 450 830 450 833 q 448 823 448 826 q 458 727 456 823 q 374 523 458 649 q 314 310 314 412 q 351 186 314 222 q 413 151 366 165 q 415 154 415 151 l 427 151 q 564 252 511 151 q 594 408 594 317 l 594 413 l 592 425 l 594 425 q 587 477 592 435 l 589 477 q 546 637 574 562 q 509 743 546 647 q 473 941 473 861 q 488 1009 485 1006 l 486 1014 l 486 1016 q 601 1163 541 1163 l 612 1160 l 614 1165 m 571 1101 q 596 1071 575 1071 l 599 1071 q 629 1101 629 1074 q 599 1128 629 1124 q 571 1101 571 1122 m 55 977 q 121 895 55 918 q 140 892 131 895 q 220 959 196 892 q 222 975 220 972 q 163 1055 222 1029 q 142 1060 142 1057 q 58 993 81 1060 q 55 977 58 980 z "},"V":{"ha":718,"x_min":0,"x_max":707,"o":"m 385 1159 l 407 1159 q 527 1118 451 1159 q 612 1052 595 1070 q 680 961 680 981 q 705 892 694 943 l 705 890 l 703 886 q 707 870 707 879 l 707 864 q 705 845 707 857 q 707 839 707 841 q 703 833 703 839 q 705 827 703 831 q 653 725 694 774 q 521 564 543 602 q 484 506 492 523 q 395 318 440 431 q 376 267 389 313 q 361 231 373 267 l 363 227 q 335 155 357 221 l 333 155 l 335 151 q 314 81 320 119 q 306 60 309 81 q 308 54 308 56 q 302 47 307 54 l 304 43 q 296 12 300 34 l 300 12 l 300 8 q 283 0 300 2 q 273 37 275 16 q 271 39 271 37 l 273 43 q 264 58 270 43 l 269 60 q 260 93 269 63 l 262 93 l 235 248 q 213 337 217 329 q 211 339 211 337 q 213 345 211 341 q 186 438 213 351 l 151 539 l 56 748 q 0 932 15 834 q 2 934 0 934 l 0 944 l 0 955 q 2 957 0 957 q 0 959 2 959 q 20 1037 0 1001 q 73 1072 48 1072 l 87 1074 q 180 961 156 1074 l 178 957 q 180 951 180 953 l 178 951 l 180 946 l 180 942 q 178 940 180 940 l 180 936 l 180 926 q 178 924 180 924 l 180 920 q 172 874 175 888 q 174 868 172 872 q 172 849 172 857 q 174 843 172 847 q 168 806 170 831 q 170 800 170 802 l 168 795 l 170 791 l 168 787 l 170 783 q 165 770 168 770 q 174 715 172 740 l 172 715 l 180 677 l 178 677 l 184 657 l 182 653 q 188 643 182 643 l 188 632 l 192 618 l 190 618 q 283 385 223 486 l 290 385 q 308 432 290 392 l 306 436 q 337 556 316 454 q 335 558 337 558 q 341 593 340 593 q 339 595 341 595 q 343 647 341 635 l 341 651 l 343 655 l 341 663 l 343 667 q 339 688 340 671 q 341 694 341 692 q 337 699 337 694 l 337 711 l 335 732 l 337 732 q 275 936 328 775 q 256 1010 262 966 l 256 1054 l 269 1089 q 385 1159 315 1159 m 310 1042 q 382 965 310 981 q 458 1023 436 965 l 458 1050 q 401 1114 458 1091 q 385 1116 393 1114 q 312 1044 312 1102 q 310 1042 310 1044 m 43 1010 q 66 983 43 983 l 73 983 q 95 1010 95 987 q 73 1033 95 1028 l 66 1033 q 43 1010 43 1028 z "},"W":{"ha":1223,"x_min":0,"x_max":1550,"o":"m 1237 1162 l 1242 1160 q 1261 1162 1253 1162 l 1267 1160 q 1270 1162 1270 1160 q 1446 1122 1343 1162 q 1542 1029 1521 1085 q 1547 1002 1542 1019 l 1544 1002 q 1550 983 1550 991 q 1547 981 1550 981 l 1550 967 l 1550 960 q 1510 836 1534 863 q 1411 713 1509 814 q 1331 647 1385 688 q 1219 551 1331 643 l 1125 470 q 1085 433 1125 467 q 892 222 943 296 q 802 104 851 178 q 687 5 720 5 l 663 3 l 663 5 l 657 3 l 654 3 q 606 37 625 12 q 574 190 587 37 l 577 214 q 574 222 574 219 l 577 227 q 574 238 574 232 q 580 254 574 242 q 577 264 577 258 l 580 264 q 577 273 577 270 q 583 310 583 304 l 580 310 q 489 144 512 229 q 420 16 448 35 q 377 0 398 0 q 318 29 328 14 q 256 198 273 92 l 259 198 l 211 387 q 128 559 184 473 q 16 844 23 756 q 5 895 12 844 q 3 898 3 895 q 5 901 3 901 l 3 906 l 3 924 q 0 951 3 937 l 8 989 l 8 1013 q 62 1069 31 1069 q 80 1077 62 1074 l 88 1077 q 150 1031 112 1077 q 179 975 150 1027 q 211 842 211 848 q 208 833 208 837 q 235 660 217 833 q 307 412 257 498 q 336 377 316 395 l 339 377 q 342 385 339 380 q 339 393 339 390 q 387 537 345 393 q 452 687 404 566 q 478 745 462 699 q 606 884 555 884 l 633 884 q 644 887 640 884 q 700 844 667 884 q 732 756 715 818 l 730 751 q 740 687 734 735 l 738 682 q 743 673 740 673 q 740 668 743 668 q 743 609 743 628 l 743 566 q 748 441 743 473 q 745 433 745 436 q 751 420 751 433 q 831 561 792 465 q 844 606 843 606 l 842 612 q 858 671 849 626 q 855 673 858 673 q 869 775 869 762 q 866 788 866 779 l 871 799 q 869 802 871 802 q 911 1021 869 924 q 1042 1128 947 1090 q 1237 1162 1147 1162 m 1288 970 q 1381 879 1288 898 q 1478 970 1478 897 l 1478 989 q 1398 1072 1478 1048 q 1384 1074 1389 1072 q 1288 991 1311 1074 l 1288 970 m 54 1000 l 54 994 q 85 967 54 970 q 117 994 117 970 l 117 1005 q 85 1031 117 1029 l 80 1031 q 54 1000 56 1031 m 580 804 q 612 775 589 775 l 617 775 q 647 804 640 775 l 647 810 q 614 842 640 842 q 580 804 587 842 z "},"X":{"ha":1145,"x_min":0,"x_max":1137,"o":"m 290 1165 l 311 1160 q 321 1163 315 1163 q 376 1149 330 1158 q 567 951 479 1103 q 646 755 606 895 q 650 724 646 742 l 653 724 q 724 917 664 813 q 836 1019 802 1004 q 1006 1072 903 1072 q 1097 1032 1089 1060 q 1137 969 1120 1032 q 1105 897 1127 926 q 993 818 1065 848 q 808 724 883 780 q 711 593 724 636 q 698 528 698 546 l 701 509 l 698 509 q 701 502 701 505 q 713 434 701 448 q 711 431 713 431 q 857 230 736 359 q 894 180 869 208 q 932 62 932 131 q 909 18 928 37 q 876 0 897 9 l 870 0 q 734 117 791 0 q 698 230 719 180 l 701 235 q 630 384 680 310 q 619 397 619 391 l 614 397 q 567 306 614 391 q 475 149 541 243 q 342 44 393 60 q 212 5 256 5 l 212 8 q 196 3 201 3 q 97 86 97 14 q 264 233 97 157 q 450 358 374 288 q 517 444 499 412 q 541 486 526 450 q 431 570 496 540 q 309 622 382 600 q 99 716 155 669 q 10 842 39 751 q 0 897 0 886 l 3 901 l 0 907 l 3 917 q 0 920 3 920 q 26 1014 2 965 q 83 1076 52 1055 q 199 1145 156 1139 q 290 1165 215 1156 m 1019 956 l 1019 949 q 1050 922 1019 925 q 1082 951 1082 925 l 1082 956 q 1050 985 1082 983 q 1019 956 1019 983 m 71 870 q 146 776 71 804 q 165 773 161 776 q 258 867 258 787 l 261 867 q 186 962 261 935 q 168 964 171 962 q 73 873 73 949 q 71 870 71 873 m 133 89 q 168 60 133 64 q 199 92 199 66 q 162 125 199 122 q 133 89 136 125 m 823 97 l 823 89 q 857 60 827 60 q 886 89 880 60 l 886 97 q 852 125 882 125 q 823 97 823 117 z "},"Y":{"ha":838,"x_min":21,"x_max":1050,"o":"m 991 1164 l 1028 1137 q 1050 1076 1043 1113 q 1048 1067 1048 1072 l 1048 1064 q 1050 1057 1048 1057 q 967 867 1050 963 q 921 809 967 861 q 855 731 900 779 q 746 590 843 712 q 622 351 659 457 q 581 115 591 227 q 583 113 581 113 q 576 45 581 77 q 578 35 578 41 l 573 33 l 576 8 q 544 -152 566 -97 q 432 -264 495 -244 q 376 -283 431 -265 l 364 -281 l 320 -281 q 318 -279 318 -281 l 313 -281 l 306 -281 q 148 -222 211 -264 q 50 -115 59 -152 q 21 -18 21 -52 q 45 79 28 55 q 133 169 67 117 q 318 264 184 203 q 447 412 407 315 q 481 541 481 493 l 481 549 q 478 568 481 559 l 481 578 q 437 782 467 727 q 386 843 420 821 q 235 894 355 860 q 148 1008 148 941 l 148 1010 q 157 1059 153 1059 l 155 1064 q 206 1130 165 1095 q 298 1157 264 1157 q 352 1154 326 1154 q 476 1096 433 1137 q 554 964 532 1041 q 576 838 576 896 q 593 697 583 838 q 639 616 606 616 q 717 704 673 616 q 741 755 737 755 l 821 991 q 945 1157 895 1157 q 991 1164 958 1162 m 950 1088 q 977 1062 957 1062 l 985 1062 q 1011 1088 1004 1062 q 985 1120 1011 1116 l 977 1120 q 950 1088 950 1116 m 199 994 q 225 967 207 967 l 233 967 q 260 994 260 972 l 260 999 q 233 1025 256 1025 l 225 1025 q 199 994 203 1025 m 75 -1 q 140 -86 75 -61 q 159 -92 159 -89 l 165 -89 q 167 -92 167 -89 q 250 -21 222 -92 q 252 -3 250 -7 q 182 84 252 58 q 170 86 170 84 q 77 18 103 86 q 75 -1 77 1 z "},"Z":{"ha":1157,"x_min":0,"x_max":1142,"o":"m 711 1160 l 734 1160 q 736 1158 736 1160 q 739 1160 739 1158 q 890 1094 808 1160 q 918 1065 890 1089 q 956 966 943 1029 l 958 954 q 956 951 958 951 l 958 938 l 958 928 q 956 918 958 922 q 958 910 958 913 q 696 597 930 775 q 648 558 688 585 l 484 420 q 444 362 444 376 l 444 352 q 492 323 452 323 l 497 323 q 663 413 564 323 q 810 564 744 508 q 880 599 816 564 q 943 614 899 607 l 966 614 q 968 612 968 614 l 974 614 l 1030 602 q 1122 497 1084 580 q 1142 395 1135 454 l 1139 395 l 1142 390 l 1142 359 q 1050 87 1142 205 q 923 10 998 28 q 903 5 923 7 l 897 7 l 862 0 l 854 0 q 640 74 765 0 q 530 130 556 130 q 451 145 486 145 q 286 107 382 145 q 148 64 225 84 l 148 66 q 104 58 138 61 q 3 132 31 58 l 5 138 q 0 176 0 161 l 0 181 q 204 515 0 338 q 342 622 212 529 q 602 780 449 692 q 709 862 671 829 q 755 948 748 908 q 675 1050 755 1017 q 635 1055 665 1055 q 510 1015 574 1055 q 385 923 477 998 q 250 867 305 867 q 242 869 247 867 q 239 867 239 869 q 110 941 157 867 q 97 997 97 981 l 97 1010 q 184 1061 121 1061 q 293 1038 220 1061 l 339 1038 q 490 1091 376 1040 q 622 1149 547 1126 q 642 1158 642 1152 q 711 1160 690 1160 m 145 979 l 145 974 q 174 946 149 946 l 181 946 q 209 979 204 946 q 181 1007 200 1007 l 174 1007 q 145 979 145 1003 m 869 467 q 964 372 886 372 q 1053 449 1028 372 q 1055 464 1053 460 q 981 555 1055 528 q 964 558 974 555 q 869 467 869 541 z "},"[":{"ha":514,"x_min":0,"x_max":0,"o":""},"\\":{"ha":386,"x_min":0,"x_max":0,"o":""},"]":{"ha":514,"x_min":0,"x_max":0,"o":""},"^":{"ha":688,"x_min":0,"x_max":0,"o":""},"_":{"ha":694,"x_min":0,"x_max":694,"o":"m 0 -68 l 694 -68 l 694 -109 l 0 -109 l 0 -68 z "},"`":{"ha":694,"x_min":144,"x_max":456,"o":"m 456 732 l 410 732 l 186 869 q 154 896 165 882 q 144 924 144 909 q 158 959 144 945 q 194 972 172 972 q 221 964 208 972 q 259 932 235 956 l 456 732 z "},"a":{"ha":789,"x_min":-45,"x_max":806,"o":"m 484 972 q 568 850 549 972 l 574 822 l 572 822 l 574 818 l 574 794 q 576 787 574 790 l 574 783 q 576 781 574 781 l 574 766 l 574 749 q 576 741 574 745 q 574 739 576 739 l 576 715 l 576 701 q 574 699 576 699 l 576 696 l 576 684 q 616 486 587 553 q 736 289 649 414 q 806 103 783 218 q 804 98 804 100 l 806 94 q 802 78 804 78 l 804 74 q 774 26 804 50 l 754 20 l 736 20 q 653 105 694 28 q 624 218 638 136 q 585 374 612 319 q 477 482 538 458 l 458 494 l 454 492 q 427 496 439 496 q 371 471 403 496 q 342 391 342 438 q 403 224 342 336 q 418 159 418 184 q 359 38 418 72 l 318 16 q 316 18 316 16 q 227 1 316 13 q 221 3 223 3 l 211 1 l 211 3 q 210 1 210 3 q 8 76 101 1 q -20 111 -20 106 q -45 189 -45 153 q 75 388 -45 285 q 208 522 169 471 q 336 757 291 618 l 369 833 q 438 948 387 897 q 484 972 454 964 m 468 907 q 496 883 475 883 q 517 907 517 890 l 517 911 q 496 932 517 927 l 492 932 q 468 907 472 932 m 395 652 q 397 650 395 650 l 395 642 q 401 599 397 612 q 399 597 399 599 q 410 575 401 597 q 438 564 422 564 q 474 589 458 569 q 490 652 481 610 l 488 656 l 488 658 q 490 660 488 660 l 488 664 l 488 672 q 490 680 488 676 q 486 692 486 688 l 488 692 q 456 772 472 772 l 442 772 q 409 721 421 762 q 395 652 395 676 m 221 149 q 294 85 236 85 q 361 153 361 100 l 361 167 q 304 228 361 208 q 292 230 295 228 q 221 172 242 230 l 221 149 m 722 96 q 744 74 729 74 l 746 74 q 772 96 768 74 l 772 98 q 746 123 770 123 q 722 96 728 123 z "},"b":{"ha":593,"x_min":0,"x_max":581,"o":"m 211 975 q 217 973 215 973 q 218 975 218 973 q 376 943 304 968 q 463 892 451 910 q 532 819 499 866 q 569 706 564 761 q 563 664 566 693 q 565 658 565 660 q 507 534 552 581 q 460 492 497 519 q 453 488 460 488 l 453 486 q 501 451 463 486 q 546 395 517 439 q 581 286 581 341 q 578 279 581 282 q 581 271 581 275 q 553 159 571 186 q 453 48 536 104 q 342 4 408 20 l 340 4 l 336 6 q 311 0 336 1 l 311 2 q 306 0 308 0 q 231 2 290 0 q 227 6 231 6 l 217 4 q 166 16 217 7 q 73 68 111 35 q 20 172 20 118 q 16 188 17 172 l 18 195 l 16 209 q 72 352 33 311 q 141 414 98 389 q 182 426 178 426 l 182 424 l 186 426 l 188 426 q 190 424 190 426 l 193 426 l 195 426 q 284 376 243 426 q 372 259 312 259 l 379 259 q 381 257 381 259 q 433 294 406 257 l 445 315 q 441 319 441 315 l 445 329 q 393 416 445 378 q 286 451 371 433 q 229 519 229 474 q 279 587 229 545 q 363 629 307 606 q 474 759 474 677 l 474 772 l 470 785 q 472 787 472 785 q 453 819 470 787 q 406 857 431 848 q 338 878 365 878 l 317 878 q 201 828 258 878 q 166 722 166 793 q 172 689 168 693 q 170 687 172 687 q 190 576 190 585 q 188 567 188 574 l 191 565 q 188 546 190 546 q 190 544 188 544 q 149 441 190 497 q 118 424 129 424 q 106 422 109 424 l 102 424 l 99 422 q 54 472 62 422 l 54 481 q 56 484 54 484 l 54 488 q 56 490 54 490 l 54 494 q 85 565 60 520 q 114 642 114 610 q 109 689 114 667 q 111 691 111 689 q 106 694 106 691 q 109 696 106 696 q 79 753 96 733 q 18 830 54 787 q 0 875 12 838 q 4 878 1 878 l 2 886 q 104 962 2 929 q 106 960 106 962 q 125 968 121 964 l 132 968 q 197 973 176 973 l 203 973 q 211 975 208 973 m 29 878 l 29 877 q 52 853 34 853 q 77 877 77 858 q 56 902 74 902 l 54 902 q 29 878 29 899 m 261 524 q 283 501 267 501 l 288 501 q 310 526 307 501 q 288 547 306 547 l 283 547 q 261 524 266 547 m 81 486 q 102 460 85 460 l 109 460 q 130 481 125 460 q 109 507 126 507 l 102 507 q 81 486 81 503 m 111 310 q 178 242 123 242 l 182 240 q 250 298 230 240 q 252 310 250 307 q 186 379 239 379 q 182 381 186 381 q 112 325 132 381 q 111 310 112 317 z "},"c":{"ha":721,"x_min":0,"x_max":702,"o":"m 468 972 l 468 970 l 472 972 q 621 909 559 972 q 673 834 661 870 q 698 772 686 810 q 702 683 702 714 q 700 677 702 681 q 702 670 702 674 l 698 668 l 700 664 q 659 559 687 589 q 598 504 634 524 q 551 483 588 496 q 549 485 551 485 l 547 481 q 504 479 513 479 q 366 502 462 479 l 362 500 l 353 502 l 336 500 l 336 502 l 332 500 l 326 500 q 325 502 325 500 q 196 441 239 483 q 155 385 155 402 q 134 338 148 385 l 132 326 l 134 323 q 130 315 132 315 q 132 313 130 313 q 130 302 130 303 q 193 126 130 205 l 227 98 q 355 58 296 58 l 372 58 q 389 62 376 58 l 389 60 q 456 91 421 66 q 500 153 500 129 q 523 217 506 159 q 589 273 551 273 l 596 273 q 646 245 628 273 q 649 208 649 245 q 647 205 649 205 q 649 203 647 203 q 644 178 647 181 q 646 172 646 174 l 642 170 l 644 166 q 574 70 637 134 q 543 49 570 70 q 381 0 442 0 l 357 0 q 317 4 327 0 l 313 2 q 289 9 289 7 l 285 7 q 178 55 205 33 q 87 136 134 82 q 32 222 45 192 q 0 362 9 269 l 0 364 l 2 364 l 0 368 l 2 385 q 0 396 2 387 l 9 463 q 91 621 26 545 q 227 732 156 689 q 315 830 286 777 q 381 928 353 899 q 468 972 419 963 m 441 859 q 507 793 454 793 l 511 791 q 577 847 559 791 l 577 864 q 524 926 577 908 q 513 928 513 926 q 441 859 441 918 m 568 219 l 568 213 q 589 193 571 193 l 593 193 q 613 213 613 195 l 613 219 q 589 239 613 236 q 568 219 568 233 z "},"d":{"ha":646,"x_min":0,"x_max":631,"o":"m 179 973 q 297 949 271 962 q 406 895 345 934 q 504 818 450 867 q 532 785 504 812 q 621 591 603 688 l 618 591 l 626 565 q 624 563 626 563 q 629 528 626 539 l 628 517 q 629 511 629 513 l 628 511 l 629 508 l 629 493 l 631 482 q 629 476 629 478 q 631 469 629 472 q 629 449 629 456 l 629 443 q 628 441 629 441 q 629 439 628 439 q 616 371 626 398 l 618 368 q 582 279 593 293 q 406 94 533 183 q 307 44 322 44 q 197 7 290 30 q 196 5 197 5 l 192 7 l 172 2 q 168 3 168 2 l 150 2 l 130 2 q 122 0 125 2 q 85 26 85 12 q 77 50 81 33 q 79 57 79 53 l 76 63 q 85 85 78 63 q 118 170 118 140 l 118 176 q 79 294 118 217 q 64 363 64 347 l 66 368 q 64 373 64 371 l 66 373 q 64 375 66 375 q 96 454 75 434 q 138 478 115 474 q 192 437 178 478 q 196 412 196 420 q 184 327 196 359 l 186 323 q 179 251 179 260 q 271 127 179 127 q 325 135 309 132 l 329 133 q 429 190 363 140 q 522 366 483 234 q 521 368 522 368 q 528 452 528 401 q 522 482 522 480 l 524 486 q 482 604 507 571 q 458 629 473 617 q 395 659 425 659 l 389 659 q 296 595 338 659 q 194 513 259 537 q 172 509 175 511 q 81 555 122 509 q 13 677 18 634 q 0 774 3 707 l 2 792 l 0 801 l 9 842 q 48 914 19 886 q 163 971 93 971 q 179 973 163 973 m 48 816 q 100 749 48 770 l 123 749 q 181 801 161 749 q 183 814 181 812 q 130 881 183 861 q 117 882 117 881 q 50 829 69 882 q 48 816 50 819 m 98 410 q 118 389 104 389 l 123 389 q 144 414 144 393 q 123 434 139 434 l 118 434 q 98 410 98 434 m 109 54 q 135 30 109 30 q 155 54 152 30 q 131 76 155 72 q 109 54 109 71 z "},"e":{"ha":646,"x_min":0,"x_max":628,"o":"m 321 974 l 333 972 l 336 972 q 388 970 353 972 l 388 968 l 392 970 q 500 943 464 962 q 538 921 532 927 q 555 890 555 908 q 508 844 555 863 q 435 823 496 837 q 433 822 435 822 l 430 823 q 395 816 399 816 q 394 818 395 818 q 329 801 394 814 q 307 791 329 799 q 220 721 245 767 l 213 704 l 215 690 q 211 687 211 690 l 211 681 q 238 647 219 659 q 251 641 245 641 l 257 641 q 274 643 264 641 l 278 641 q 405 690 315 652 q 473 704 441 700 q 475 702 475 704 l 485 704 l 489 704 q 622 595 587 704 l 628 550 l 628 529 q 612 463 628 515 q 614 460 614 463 q 588 399 608 453 q 541 327 572 373 l 492 283 q 354 232 414 232 l 350 234 l 346 232 q 312 243 312 235 l 310 243 l 307 241 q 264 307 264 278 q 260 323 261 307 l 262 327 l 260 331 l 267 371 q 236 426 261 426 l 224 428 q 171 385 196 428 q 149 286 149 332 l 149 251 q 182 135 149 201 q 241 97 226 97 q 255 92 248 92 l 270 92 q 399 144 329 92 q 534 217 486 217 q 595 192 572 213 q 618 154 614 170 q 616 152 618 152 q 618 146 616 150 q 584 71 618 104 q 492 12 559 38 q 491 14 491 12 q 405 0 441 0 q 395 2 402 2 l 392 0 q 234 38 357 0 q 194 42 226 38 q 97 12 168 42 q 64 7 96 9 q 9 63 32 7 q 0 139 2 98 q 2 146 2 142 q 0 149 2 149 q 23 253 0 183 q 52 314 36 286 q 93 392 52 317 q 130 536 130 480 l 130 544 q 127 591 130 551 q 123 595 123 591 l 125 595 q 87 700 125 614 q 38 835 38 775 l 38 841 q 208 962 38 934 q 314 972 243 972 q 321 974 318 972 m 466 901 l 466 900 q 491 875 469 875 q 511 900 509 875 l 511 907 q 491 922 503 922 l 487 922 q 466 901 466 920 m 435 586 q 504 517 450 517 q 572 572 552 517 q 574 586 572 583 q 519 654 574 634 l 496 654 q 437 600 456 654 q 435 586 437 593 m 511 173 l 511 168 q 532 146 515 146 l 536 146 q 557 168 557 150 l 557 173 q 532 194 557 190 q 511 173 511 187 z "},"f":{"ha":673,"x_min":0,"x_max":661,"o":"m 509 971 q 593 945 544 971 q 643 893 625 923 q 654 860 654 867 l 659 847 l 658 843 l 659 840 l 658 836 q 661 819 661 824 l 661 808 q 659 800 661 804 q 661 799 659 799 l 658 765 l 659 762 q 609 621 639 675 q 598 600 606 621 q 579 576 579 588 l 578 576 l 574 578 q 481 513 529 528 q 479 515 479 513 l 468 513 q 387 548 414 513 q 360 587 374 559 l 357 589 q 359 594 359 592 q 345 635 345 616 q 332 671 343 635 q 273 730 307 730 q 254 739 273 734 l 245 739 q 238 737 241 739 q 231 739 235 739 q 156 667 178 719 q 149 635 156 663 l 151 631 l 146 618 q 160 570 146 593 q 158 565 158 566 q 184 530 170 543 q 262 488 217 505 q 316 446 316 463 q 323 427 321 446 q 297 385 323 403 q 234 364 252 368 l 231 366 l 163 351 q 124 329 142 347 q 98 288 107 313 q 100 286 98 286 l 98 277 l 98 266 q 149 143 98 233 q 153 141 153 143 q 151 136 151 138 q 174 89 164 119 l 176 89 q 173 75 173 78 l 176 73 l 174 68 q 178 65 175 65 q 156 18 170 18 q 119 0 156 7 l 104 0 q 56 30 81 3 q 20 111 28 65 q 17 124 18 111 q 18 126 17 126 l 17 139 l 17 158 l 18 169 q 17 178 17 172 l 17 180 q 18 182 17 182 q 17 184 18 184 q 50 364 17 215 l 48 368 q 54 387 51 374 q 52 392 52 390 q 56 397 54 397 q 54 399 56 399 q 58 455 58 433 l 56 458 l 60 466 q 58 472 58 470 l 60 472 l 58 475 l 58 479 q 60 485 58 485 l 58 494 l 58 515 q 11 701 58 568 l 0 747 l 2 747 q 0 749 2 749 q 63 852 0 824 q 186 875 124 874 q 357 923 241 877 q 465 964 368 936 l 494 970 l 498 968 l 509 971 m 479 858 q 533 791 479 811 l 555 791 q 613 854 613 804 q 615 857 615 854 q 550 925 615 910 q 481 871 500 925 q 479 858 481 858 m 239 437 q 260 418 248 418 l 266 418 q 286 438 286 422 l 286 442 q 271 463 286 453 l 260 463 q 239 437 243 463 m 100 75 q 123 50 104 50 l 126 50 q 146 71 142 50 l 146 75 q 123 96 146 93 q 100 75 100 88 z "},"g":{"ha":1040,"x_min":0,"x_max":1028,"o":"m 610 972 l 668 964 q 674 966 672 966 q 758 921 758 941 q 772 895 766 921 q 774 893 774 895 q 734 847 760 857 q 698 833 728 841 q 696 836 696 833 l 672 833 l 636 833 q 629 836 632 833 q 621 833 625 833 q 610 839 621 836 q 608 837 608 839 l 467 863 q 459 861 464 861 l 459 863 q 457 861 457 863 l 448 863 l 437 861 l 433 863 q 290 833 384 863 q 211 785 235 804 q 123 678 144 726 q 83 547 90 625 q 81 527 81 536 l 81 511 q 79 503 81 507 q 81 497 81 499 q 79 495 81 495 l 81 485 l 81 465 l 83 454 l 81 450 q 83 444 83 446 l 81 439 q 90 414 87 418 q 87 408 87 410 q 92 404 92 407 q 90 397 90 400 q 98 376 92 397 q 179 222 133 282 q 294 141 239 161 q 390 115 360 115 q 392 117 392 115 q 424 113 410 113 q 571 167 509 113 q 606 247 606 205 q 551 332 606 300 q 344 426 387 389 q 284 509 296 467 q 275 537 275 526 q 277 539 275 539 l 275 549 l 275 565 q 309 662 275 612 q 441 744 368 728 q 495 749 475 749 q 557 742 557 746 l 561 744 q 716 606 647 722 q 746 541 734 573 q 744 535 744 537 q 749 523 748 535 q 781 576 751 523 q 889 668 833 649 l 941 680 q 1028 610 1028 667 l 1028 604 q 990 525 1028 568 q 962 505 985 524 q 839 429 850 452 q 813 392 813 396 q 789 344 813 387 q 684 135 737 199 q 595 58 633 77 q 435 2 548 20 q 408 0 417 2 q 390 2 400 2 l 386 0 q 348 8 348 5 l 344 6 q 235 36 255 21 q 132 111 189 56 q 16 316 52 197 q 18 322 18 320 q 6 384 14 322 q 4 386 4 384 l 6 390 q 0 416 5 411 l 2 420 q 0 422 2 422 l 2 431 l 2 450 q 0 467 2 456 q 2 473 2 471 q 0 479 0 477 l 4 481 q 0 501 2 485 l 12 571 q 16 585 12 576 q 14 593 14 588 q 44 674 38 662 l 81 742 q 173 836 136 810 q 260 891 204 862 q 358 930 300 913 q 553 966 475 966 q 583 970 553 968 l 587 968 q 610 972 605 971 m 676 897 q 700 875 683 875 q 726 901 726 877 q 700 925 726 922 q 676 897 680 925 m 324 573 q 397 499 338 499 q 467 563 467 515 l 467 576 q 397 644 467 631 q 324 573 324 631 m 939 606 q 962 583 944 583 q 988 606 988 587 q 960 632 988 632 q 939 606 942 632 z "},"h":{"ha":682,"x_min":0,"x_max":660,"o":"m 231 970 q 330 948 302 970 q 368 915 342 947 l 375 907 q 389 868 385 882 q 387 867 389 867 l 389 858 l 389 837 q 387 836 389 836 l 389 831 q 372 766 389 808 q 347 703 372 754 l 349 700 l 334 663 l 335 660 q 319 592 328 650 l 319 587 q 356 495 319 511 l 363 492 q 368 493 366 493 l 377 492 q 436 532 416 503 q 472 625 453 557 q 471 630 471 629 q 488 703 474 630 q 493 726 488 707 l 493 741 q 512 818 498 750 q 542 884 532 872 q 540 889 540 887 q 576 911 568 911 l 589 911 q 641 873 625 911 q 651 827 648 827 q 650 821 650 823 q 639 698 646 712 l 641 694 q 623 606 629 650 l 610 545 q 611 538 611 543 l 606 530 l 608 526 l 601 502 q 603 500 601 500 l 595 444 l 597 441 q 595 434 597 437 q 597 433 595 433 l 594 413 q 595 412 594 412 l 594 399 l 594 380 q 592 365 594 374 l 599 334 q 597 328 599 332 q 604 295 601 302 q 603 290 603 292 l 620 217 q 658 104 658 122 q 660 75 658 98 l 658 71 q 660 69 658 69 q 654 43 658 43 q 656 41 654 41 q 625 10 656 24 q 611 9 618 9 q 578 33 591 17 q 566 59 566 52 q 545 165 552 86 l 547 168 l 545 172 l 547 176 l 545 186 q 547 188 545 188 q 543 203 545 203 l 545 212 l 545 216 q 542 252 545 230 l 543 252 q 540 260 540 258 l 542 260 q 538 278 540 263 q 540 279 540 278 q 536 283 536 279 l 536 285 l 538 288 q 524 332 536 290 l 505 368 q 439 412 483 401 q 429 413 438 412 q 418 412 428 413 l 415 413 q 340 387 378 410 q 298 326 302 347 q 278 236 278 277 l 279 233 q 278 226 278 230 l 278 214 q 276 212 278 212 l 278 208 l 278 189 q 276 182 278 185 l 278 179 q 276 137 276 155 l 276 123 q 273 120 276 120 l 275 117 q 243 22 255 22 q 219 0 243 14 l 212 0 q 210 2 210 0 l 207 0 q 167 26 182 0 q 156 59 156 43 l 155 59 q 199 189 155 106 q 226 273 210 212 q 224 279 224 275 l 226 286 l 224 290 q 227 304 227 296 l 227 334 q 210 436 222 397 q 205 452 207 436 q 201 455 201 452 l 201 456 l 203 460 q 182 504 201 460 q 151 549 173 522 q 62 653 113 600 q 33 693 62 655 q 2 764 10 730 q 3 769 3 768 q 0 780 0 775 l 0 788 q 2 795 0 792 l 0 799 q 24 867 12 854 q 90 929 47 903 q 231 970 155 964 m 219 854 q 281 790 231 790 q 346 852 346 802 q 281 917 334 917 q 220 867 239 917 q 219 854 220 857 m 573 861 l 573 859 q 594 837 576 837 l 595 837 q 616 859 613 837 q 595 880 611 880 q 573 861 573 878 m 594 75 l 594 71 q 613 52 597 52 l 618 52 q 637 75 634 52 q 618 94 631 94 l 613 94 q 594 75 594 91 m 188 56 q 207 37 192 37 l 212 37 q 231 59 229 37 q 212 78 227 78 l 207 78 q 188 56 191 78 z "},"i":{"ha":409,"x_min":0,"x_max":396,"o":"m 178 972 q 237 927 221 972 l 245 897 l 243 893 l 245 882 q 243 877 245 877 q 245 871 243 875 q 237 789 242 790 q 239 787 237 787 q 236 770 237 774 q 237 765 237 767 q 234 762 234 764 l 234 734 q 231 731 234 731 l 232 727 l 232 726 l 225 675 q 227 673 225 673 q 223 605 223 648 q 225 600 225 602 l 222 597 l 223 589 l 223 583 q 222 569 223 576 q 227 529 224 542 q 225 528 227 528 q 256 412 239 446 q 284 357 273 374 q 355 269 336 286 q 394 164 394 219 q 396 162 396 164 q 371 81 396 125 q 315 36 343 45 l 283 18 l 279 20 q 232 5 264 11 l 200 2 l 200 3 l 196 2 l 176 2 q 170 0 172 2 q 164 3 164 2 l 160 2 q 102 14 102 7 q 97 13 99 13 q 52 34 57 34 q 34 54 52 40 q 7 101 23 69 l 11 102 q 3 117 11 104 l 5 121 q 0 135 0 134 l 2 146 l 0 155 l 3 157 q 0 168 0 163 q 5 191 3 168 q 85 297 18 237 q 119 338 100 309 q 149 412 137 360 q 165 526 165 488 l 165 545 q 168 551 165 551 l 165 560 l 165 578 q 149 704 159 686 q 127 790 149 709 q 115 864 121 826 q 126 927 115 892 l 130 929 l 127 932 q 165 966 151 966 q 178 972 166 970 m 146 911 l 146 905 q 170 886 146 889 q 189 905 189 890 l 189 911 q 165 930 186 930 q 146 911 146 925 m 52 144 q 113 79 64 79 q 117 77 113 77 q 184 142 184 90 q 117 209 172 209 q 54 148 54 197 q 52 144 52 148 z "},"j":{"ha":875,"x_min":0,"x_max":865,"o":"m 163 972 q 165 970 165 972 l 174 972 l 177 972 q 240 970 198 972 q 245 966 240 966 q 431 897 323 966 q 469 861 469 867 q 621 942 529 921 q 668 947 654 944 q 727 937 713 943 l 730 938 q 827 879 800 910 q 863 797 863 832 q 865 791 865 797 q 854 764 863 791 q 822 745 838 748 q 768 773 787 750 q 728 834 760 779 q 666 881 705 870 q 648 886 648 884 l 644 884 q 639 886 639 884 q 557 856 611 886 q 532 834 557 854 q 492 720 492 777 l 490 720 q 492 718 490 718 l 490 711 l 492 702 q 490 696 490 699 q 492 694 490 694 l 490 682 q 515 535 490 637 q 528 484 519 535 q 530 481 530 484 l 530 471 q 537 440 534 440 q 535 435 537 439 q 541 380 539 407 l 539 376 q 541 347 541 357 l 541 333 q 543 326 541 329 q 537 269 537 302 q 534 265 534 268 l 534 247 q 498 143 534 233 q 478 120 492 132 q 442 72 478 110 q 390 33 393 33 q 252 0 330 0 l 252 2 q 251 0 251 2 q 57 106 128 0 q 0 267 20 146 l 0 330 q 22 442 0 374 q 61 523 36 487 q 157 610 128 605 q 210 630 182 630 q 243 635 229 635 l 245 635 q 247 633 247 635 l 251 635 l 263 635 q 367 582 315 635 q 401 487 401 526 q 403 471 401 477 l 401 471 q 405 456 405 462 l 403 453 l 405 450 q 403 444 405 448 l 405 435 l 403 426 l 405 422 q 387 338 396 363 l 389 335 q 355 269 372 294 q 297 227 328 233 q 292 226 295 227 q 211 238 272 226 l 195 238 q 159 202 174 238 q 157 181 157 193 q 267 102 157 127 q 286 106 284 106 q 294 104 290 104 q 330 113 294 107 q 366 134 330 116 q 392 163 366 136 q 446 260 446 237 q 460 302 451 269 l 458 306 l 460 310 q 458 315 458 313 q 467 370 464 315 l 467 392 q 465 399 467 396 q 469 405 467 405 q 444 589 461 532 l 442 589 q 444 591 442 591 q 403 682 432 637 q 385 711 403 689 q 292 808 365 745 q 272 822 288 808 q 136 890 235 844 q 82 927 114 890 l 82 931 q 106 962 82 953 q 163 972 136 972 m 134 924 q 154 904 140 904 l 159 904 q 181 927 176 904 q 159 949 175 949 l 154 949 q 134 924 136 949 m 789 806 q 811 786 789 791 l 812 786 q 834 809 831 786 q 812 831 829 831 q 789 806 789 831 m 204 524 q 267 458 204 473 l 269 458 q 335 524 335 470 q 269 589 335 576 q 206 535 223 589 q 204 524 206 527 z "},"k":{"ha":700,"x_min":0,"x_max":686,"o":"m 496 973 l 509 973 q 537 969 537 972 l 541 971 l 543 971 q 633 911 591 956 q 667 840 654 880 l 675 810 q 673 808 673 810 q 682 767 676 808 l 680 764 q 684 752 684 758 q 682 749 684 749 q 686 726 684 731 q 678 660 682 660 q 680 658 678 658 q 669 613 678 636 q 671 608 671 610 l 637 549 l 613 528 q 556 511 591 511 q 460 536 532 511 q 432 537 444 537 l 422 537 l 413 536 l 413 537 q 372 524 383 532 q 308 475 344 524 q 294 445 302 457 q 289 422 294 441 q 291 415 291 419 q 289 413 291 413 l 291 410 l 289 400 q 298 370 294 400 q 304 361 300 370 q 302 354 302 358 q 369 260 332 296 q 489 172 435 202 q 589 65 589 101 l 587 61 l 589 58 q 556 18 579 18 l 547 18 q 433 71 484 18 q 398 104 415 92 q 326 211 398 107 q 246 317 309 248 q 178 369 201 368 q 139 345 163 369 l 119 302 l 119 300 q 121 294 121 296 q 109 235 114 294 l 107 235 l 109 232 l 109 218 q 111 211 109 214 q 109 210 111 210 q 115 159 112 172 q 113 157 115 157 l 117 126 l 113 94 q 115 89 115 91 q 45 0 105 0 q 2 52 6 0 l 2 54 q 3 59 3 58 l 0 66 q 39 187 0 94 q 54 289 54 243 q 52 291 54 291 l 54 300 l 54 341 l 52 354 l 54 354 l 52 357 l 52 365 q 37 467 41 467 l 35 467 q 37 475 35 471 l 15 648 l 17 652 l 15 656 q 17 658 15 658 l 15 667 l 15 688 q 17 689 15 689 q 15 695 15 693 l 17 699 q 15 706 15 702 l 18 708 q 17 710 18 710 q 46 845 26 783 q 102 934 66 897 q 139 952 125 952 l 152 952 q 189 916 177 952 l 191 906 q 189 891 189 896 l 191 884 q 174 842 180 848 q 176 840 176 842 q 96 628 106 722 l 93 597 l 94 593 q 93 578 93 583 q 132 534 93 548 l 142 536 l 146 534 q 197 567 186 545 q 252 673 218 590 l 313 812 q 328 834 317 812 q 365 893 341 858 q 469 967 414 953 l 481 971 l 481 969 q 496 973 488 973 m 121 897 q 144 876 121 880 q 167 901 162 876 q 144 923 161 923 q 121 897 121 923 m 452 854 q 508 789 452 808 q 519 787 516 789 q 585 852 585 798 q 587 854 587 852 q 534 921 587 902 q 519 923 526 921 q 454 858 454 910 l 452 854 m 509 85 l 509 81 q 524 61 509 69 l 532 61 q 554 76 548 61 l 554 91 q 534 106 546 106 l 524 106 q 509 85 509 98 m 31 63 l 31 59 q 52 39 35 39 l 58 39 q 78 63 74 39 q 58 83 71 83 l 52 83 q 31 63 31 80 z "},"l":{"ha":505,"x_min":0,"x_max":491,"o":"m 124 972 q 139 968 131 968 q 142 972 140 972 q 285 924 189 972 l 340 882 q 393 782 393 818 q 398 780 395 782 q 396 772 398 779 q 400 749 400 756 l 398 749 l 400 745 l 400 734 q 398 727 400 730 q 400 720 400 724 l 396 718 l 398 714 l 398 712 q 389 677 395 707 q 380 657 382 657 q 382 652 382 654 q 274 486 361 600 q 188 329 217 401 l 164 247 q 166 241 166 243 q 159 208 162 241 q 157 206 157 208 q 159 201 157 204 q 157 181 157 189 l 159 177 q 155 166 155 170 q 186 93 155 126 q 232 75 220 75 l 241 75 q 359 140 285 75 q 435 170 399 170 l 437 170 q 484 137 465 170 l 491 106 l 490 106 q 491 104 490 104 q 475 60 486 73 l 477 56 q 458 42 473 56 q 343 3 411 3 l 254 16 q 250 20 250 16 q 248 18 248 20 q 205 22 224 22 q 199 20 203 22 l 195 22 q 104 0 187 22 l 84 0 q 45 44 45 19 q 35 97 37 44 q 39 124 37 122 q 35 128 35 124 q 51 206 40 136 q 64 243 54 206 q 86 343 77 283 l 87 343 q 86 349 87 345 q 90 369 87 365 q 87 371 90 371 l 90 384 l 90 416 q 92 433 90 423 q 80 493 87 463 l 82 493 q 58 581 68 557 q 42 630 50 617 q 44 635 44 633 q 27 687 39 639 q 22 694 26 687 l 22 696 q 24 698 22 698 q 9 754 15 718 q 0 822 0 776 l 2 822 q 0 827 0 825 q 64 951 0 907 q 124 972 92 966 m 60 857 q 111 791 60 811 q 126 789 124 791 q 192 851 192 801 l 192 864 q 139 920 192 903 q 128 922 131 920 q 62 869 81 922 q 60 857 62 857 m 406 121 q 425 100 410 100 l 431 100 q 451 124 448 100 q 431 144 446 144 l 425 144 q 406 121 409 144 z "},"m":{"ha":993,"x_min":0,"x_max":973,"o":"m 721 973 l 721 971 l 725 973 l 746 973 q 763 969 755 973 q 765 971 765 969 q 802 963 796 968 l 806 965 l 810 965 q 909 900 858 947 q 944 838 942 855 q 963 754 955 838 l 961 754 q 963 752 961 752 q 961 746 963 750 q 963 738 961 741 q 961 715 961 724 l 961 700 l 956 686 q 958 684 956 684 q 946 633 954 647 l 948 629 q 888 471 948 625 q 869 406 869 412 l 867 406 q 869 404 867 404 q 865 390 869 400 q 867 388 865 388 l 865 377 l 865 373 l 869 367 q 863 365 865 365 q 892 267 872 298 q 919 217 894 260 l 948 175 l 971 123 l 969 119 l 973 111 q 971 104 973 109 q 973 92 971 102 q 971 79 971 81 q 973 73 973 75 q 954 41 971 73 q 896 23 929 23 l 894 23 l 882 29 q 876 27 878 27 q 814 106 823 70 q 798 140 814 107 l 800 144 q 781 239 788 180 l 783 248 q 781 258 781 252 q 783 260 781 260 q 781 262 783 262 q 785 288 783 288 l 783 292 l 783 296 q 798 373 788 306 q 812 425 801 376 q 878 612 878 583 l 882 614 l 880 619 q 884 623 880 623 q 882 625 884 625 l 886 663 l 884 667 q 888 682 888 677 l 886 694 l 888 698 q 884 717 886 702 q 886 723 886 721 q 869 777 882 724 q 763 838 819 838 q 756 840 763 840 q 640 792 694 840 q 600 740 620 772 q 567 665 586 718 l 569 661 q 552 561 552 597 l 554 550 q 550 546 550 549 l 554 540 l 554 517 q 561 500 561 507 l 559 500 l 565 477 q 563 475 563 477 q 575 454 565 475 q 573 452 575 452 q 604 396 587 421 q 661 321 610 381 q 738 192 733 224 q 748 142 748 175 q 711 52 748 92 q 550 8 659 8 l 525 8 q 505 12 505 8 l 500 10 l 496 12 q 494 10 494 12 q 369 50 460 10 l 327 83 q 254 198 279 130 l 256 208 q 252 239 256 216 q 256 244 256 239 l 252 250 q 302 392 254 294 q 363 519 340 453 q 369 540 364 534 l 369 542 l 367 546 q 373 569 372 546 q 371 575 371 573 q 377 612 377 575 l 375 627 l 379 629 q 377 635 377 633 q 379 637 377 637 l 375 665 l 377 665 l 375 669 l 375 677 q 311 794 375 732 q 273 804 281 804 l 260 804 q 154 729 204 804 q 104 583 104 630 q 100 575 102 575 l 102 571 l 102 567 l 98 561 l 98 532 q 96 529 98 529 l 98 525 q 96 517 98 520 q 98 494 98 503 l 98 486 q 96 477 98 481 q 102 448 98 459 q 100 446 102 446 q 148 304 115 358 q 156 283 148 300 q 188 225 165 260 q 210 173 188 219 q 221 136 210 161 l 219 132 q 225 106 223 123 q 171 10 225 27 q 140 0 170 9 l 132 4 q 125 2 127 2 q 98 12 125 5 q 52 73 58 44 q 23 152 37 95 l 25 156 q 6 271 15 178 q 8 273 6 273 q 2 327 8 278 q 4 330 2 330 l 2 340 l 2 390 q 0 398 2 395 q 2 406 2 401 q 0 410 2 410 l 2 421 l 2 473 l 0 477 q 4 481 4 477 l 4 494 q 6 513 4 501 l 4 517 q 17 577 9 565 q 15 583 15 581 q 29 646 27 643 q 27 648 29 648 q 109 821 52 752 q 161 869 109 825 q 273 905 234 905 q 275 903 275 905 l 288 905 q 381 882 349 898 q 444 831 416 864 q 469 794 467 809 l 473 794 q 571 913 491 838 q 703 969 638 960 l 703 967 q 721 973 713 973 m 544 152 q 619 75 559 75 q 694 140 676 75 l 694 161 q 633 225 694 204 q 619 227 622 225 q 546 167 569 227 q 544 152 546 152 m 888 96 q 913 68 891 68 l 915 68 q 940 96 937 68 q 913 121 940 117 q 888 96 888 116 m 134 85 l 134 79 q 156 56 138 56 l 161 56 q 183 79 183 60 l 183 85 q 156 109 183 109 q 134 85 138 109 z "},"n":{"ha":754,"x_min":0,"x_max":743,"o":"m 599 972 q 601 969 601 972 l 611 972 l 616 972 q 653 942 635 965 q 660 919 653 937 l 657 909 l 657 890 q 643 817 657 847 l 645 812 q 603 703 625 778 q 586 622 593 662 q 589 620 586 620 q 584 572 584 589 q 616 465 597 491 q 676 396 637 432 q 741 285 735 332 l 741 260 l 743 256 l 739 254 l 741 249 q 728 201 732 201 l 730 197 q 691 125 700 137 q 446 0 587 0 l 439 0 q 437 2 437 0 q 435 0 435 2 q 339 25 399 0 q 268 146 268 75 l 268 159 q 272 174 269 174 l 270 178 l 270 180 q 325 341 285 233 q 343 446 341 411 l 341 450 q 343 456 343 454 l 339 458 l 341 469 l 341 477 q 270 708 341 583 q 182 779 222 771 q 174 781 178 781 q 127 751 127 770 q 109 714 122 744 q 111 712 109 712 l 109 697 l 109 693 q 146 543 119 600 l 210 408 q 241 235 241 316 q 237 201 241 201 l 239 197 l 222 134 q 159 42 190 61 q 123 17 153 32 q 98 10 123 14 l 94 13 l 90 10 q 29 38 44 20 q 0 115 0 62 q 4 132 2 132 l 2 136 q 63 214 24 193 l 113 254 q 155 335 155 287 l 155 339 q 153 347 155 344 q 155 350 153 350 q 121 465 155 387 l 88 543 q 50 624 56 600 q 19 749 19 694 l 17 749 q 121 930 17 881 q 176 942 158 942 l 184 940 l 195 942 q 350 838 277 942 q 389 772 389 783 q 481 479 429 705 q 500 406 492 429 q 498 404 498 406 q 522 375 513 379 q 553 425 553 375 q 555 427 555 425 l 551 463 l 553 463 l 515 639 q 509 662 515 646 q 511 668 511 666 q 505 672 505 670 l 507 682 l 505 693 q 507 695 505 695 q 500 730 504 721 q 503 733 500 733 l 500 747 l 500 781 l 498 793 q 505 831 501 824 q 503 833 505 833 q 543 942 519 926 q 595 972 561 964 l 599 972 m 574 919 l 574 915 q 597 892 577 892 l 603 892 q 626 917 621 892 q 603 942 621 942 l 597 942 q 574 919 574 939 m 322 151 q 387 75 322 96 l 400 75 q 475 140 455 75 l 475 153 q 414 226 475 206 q 396 229 404 229 q 325 168 345 229 q 322 151 322 156 m 33 96 l 33 94 q 58 69 39 69 l 61 69 q 86 94 86 74 l 86 102 q 61 121 75 121 l 58 121 q 33 96 33 117 z "},"o":{"ha":733,"x_min":0,"x_max":715,"o":"m 386 971 l 388 967 q 394 969 392 969 q 396 967 396 969 l 406 969 l 431 969 l 443 967 q 444 969 444 967 q 477 965 467 965 q 484 967 481 967 q 530 949 516 958 q 532 951 532 949 q 593 922 582 935 q 655 869 614 913 q 663 850 659 869 l 677 832 q 675 825 675 829 q 688 798 677 825 q 686 795 688 795 q 692 772 690 787 q 690 766 690 768 q 696 760 693 766 q 694 745 696 759 q 698 723 698 731 l 696 723 l 698 720 l 698 715 l 694 709 q 696 702 694 705 l 694 698 q 696 692 696 694 q 682 646 692 692 q 608 521 642 551 q 585 499 608 518 q 559 477 576 486 q 521 454 528 454 q 446 429 487 437 q 444 431 446 431 q 441 427 444 427 q 435 429 437 429 q 433 427 433 429 l 423 429 l 415 429 q 326 462 374 429 q 316 479 323 465 q 304 497 311 479 q 285 540 298 497 q 283 546 285 542 q 306 657 290 635 q 323 704 323 696 l 323 718 q 279 758 323 745 q 152 640 203 758 l 131 587 q 132 581 132 583 q 129 575 129 581 l 131 571 q 117 524 120 525 l 119 521 l 119 511 q 115 507 119 507 l 117 497 l 117 490 q 115 488 117 488 l 117 484 l 115 479 q 117 477 115 477 q 113 441 115 445 q 115 435 115 437 q 113 433 115 433 q 119 406 115 411 q 117 399 117 401 l 119 392 q 117 386 117 388 q 121 376 121 380 l 119 372 q 125 355 121 361 q 123 349 123 351 l 131 328 l 129 323 q 170 220 145 267 l 189 185 q 252 113 205 151 l 275 94 q 386 62 346 63 q 439 72 439 62 l 448 70 q 521 105 477 77 q 552 136 521 108 q 599 277 599 196 q 600 283 600 281 q 599 298 599 290 l 599 302 q 600 310 599 307 q 599 316 599 314 q 600 332 599 321 q 599 349 599 342 l 600 349 l 599 353 q 600 361 599 357 q 599 368 599 364 l 600 372 q 599 374 600 374 q 624 491 606 452 q 677 524 642 524 q 711 484 690 524 q 709 481 711 481 q 715 443 711 458 q 702 353 711 379 l 704 349 q 667 236 690 288 q 642 183 650 195 q 583 101 642 172 q 458 20 528 45 l 439 7 q 437 9 437 7 l 433 7 l 423 7 q 421 9 421 7 q 380 0 410 4 q 378 2 378 0 l 368 0 q 218 33 275 0 q 82 162 155 60 q 56 209 82 165 l 35 261 q 37 263 37 261 q 22 310 34 263 q 9 353 15 345 l 12 361 q 4 417 7 374 l 4 441 q 2 448 4 445 q 4 456 4 452 l 2 464 q 4 466 4 464 q 0 470 0 466 q 6 486 4 470 l 4 490 q 20 593 10 562 l 18 597 q 111 817 56 744 q 220 920 151 878 q 339 963 305 963 l 386 971 m 501 780 q 557 709 501 730 q 571 708 569 709 q 644 778 629 708 q 581 848 644 833 l 564 848 q 503 791 522 848 l 501 780 m 635 452 q 659 427 640 427 q 684 454 684 427 q 661 475 684 471 l 659 475 q 635 452 635 471 z "},"p":{"ha":621,"x_min":0,"x_max":608,"o":"m 298 972 l 375 962 q 438 942 415 953 q 439 944 438 944 q 484 915 463 930 q 556 845 524 890 q 601 736 595 788 q 608 703 604 735 l 606 700 q 608 694 608 696 l 606 691 l 608 687 l 606 678 q 608 677 606 677 l 606 667 l 606 666 q 608 656 606 660 l 605 639 q 606 633 606 635 q 603 628 605 628 l 605 625 q 540 477 587 534 q 447 414 481 420 q 413 411 443 414 l 386 411 q 334 444 363 414 q 302 500 321 444 q 292 547 292 527 q 334 642 292 615 q 357 652 350 652 l 361 650 q 368 652 363 652 l 372 652 q 395 637 389 642 q 409 601 409 618 q 388 508 409 585 l 391 484 q 389 483 389 484 q 408 463 406 463 q 420 459 420 463 l 423 461 l 431 459 l 438 463 l 441 461 q 511 522 492 479 l 526 551 l 524 555 q 536 587 530 561 q 535 592 535 590 q 540 612 538 598 l 538 616 l 540 619 q 538 621 540 621 q 542 635 540 635 l 540 639 l 542 642 q 540 648 540 646 q 542 650 540 650 q 538 669 540 665 l 540 673 q 528 728 534 715 q 530 734 530 732 q 517 761 524 735 q 499 791 503 778 q 416 849 445 846 q 372 852 416 852 q 307 829 343 852 q 273 788 279 808 q 248 725 262 774 q 241 689 247 724 q 242 680 242 686 q 241 678 242 678 q 242 677 241 677 q 237 639 239 639 q 239 633 239 635 l 237 630 q 241 610 241 621 l 239 606 q 283 444 253 516 q 281 441 283 441 q 370 269 334 323 q 368 267 370 267 q 402 192 391 222 q 404 190 404 192 q 402 189 404 189 q 413 149 408 172 q 411 147 413 147 q 414 120 413 125 q 393 59 409 79 q 323 13 361 22 q 260 0 311 7 l 260 2 l 256 0 q 251 2 251 0 l 242 0 l 222 0 q 75 45 153 0 q 23 100 31 85 q 0 163 0 139 l 0 195 q 3 214 1 214 l 2 217 q 13 250 8 225 q 38 303 30 292 q 95 406 38 308 q 124 467 118 460 l 122 470 l 122 472 q 151 587 141 502 l 151 612 q 149 619 151 616 q 151 621 149 621 l 149 630 l 149 646 q 145 661 149 654 l 147 664 q 131 709 141 694 q 117 743 131 720 l 119 747 q 94 786 112 752 q 54 849 80 799 l 56 852 l 52 865 q 75 905 61 905 q 185 956 104 932 q 298 972 264 972 m 84 872 q 109 849 84 849 q 130 872 130 852 q 104 894 130 891 q 84 872 84 886 m 337 603 q 361 580 339 580 l 362 580 q 382 603 379 580 q 359 625 382 620 q 337 603 337 619 m 235 131 q 300 63 247 63 q 364 115 345 63 q 366 127 364 125 q 303 192 355 192 q 300 194 303 194 q 239 145 257 194 q 235 131 237 131 z "},"q":{"ha":760,"x_min":0,"x_max":747,"o":"m 401 972 q 406 968 406 970 q 412 970 410 970 q 521 925 484 956 q 577 867 572 885 q 624 755 612 825 l 633 695 l 631 684 l 631 678 q 633 671 631 674 q 631 663 631 667 l 631 661 q 635 644 631 656 q 631 641 631 644 l 631 625 q 624 588 627 588 l 625 585 q 577 485 611 513 q 534 470 566 475 l 524 470 q 476 523 476 496 q 470 538 475 523 q 507 607 470 576 q 564 712 559 679 q 568 742 568 720 l 568 747 q 538 843 568 792 q 459 903 500 884 q 399 918 403 918 q 397 916 397 918 l 388 918 l 366 918 q 216 856 295 918 q 148 777 162 806 q 111 684 127 747 q 105 667 111 675 l 105 665 q 101 635 105 643 l 103 631 q 99 625 101 625 l 101 622 q 99 585 99 597 l 98 585 q 130 440 105 511 q 152 389 134 422 q 150 388 150 389 q 176 350 154 388 q 212 315 178 350 q 249 287 247 287 q 294 260 249 279 q 356 248 321 248 q 399 262 399 257 q 405 260 403 260 q 444 332 444 293 q 450 352 445 332 l 448 356 q 470 420 454 397 q 523 448 503 448 q 524 450 523 450 l 560 450 q 654 397 598 446 q 736 264 722 323 q 747 206 739 264 l 745 206 l 747 202 l 747 199 q 745 197 747 197 q 747 195 745 195 q 728 120 742 145 q 696 79 718 97 q 581 13 665 42 q 534 0 534 3 q 530 2 530 0 q 509 0 513 0 q 474 2 504 0 q 467 0 467 0 q 335 26 417 0 q 189 109 241 62 q 98 210 124 168 q 45 311 62 257 q 20 367 27 357 l 20 369 l 22 373 q 12 414 14 409 l 12 416 q 13 418 12 418 q 7 437 7 433 l 9 437 l 2 481 q 4 489 4 485 q 2 494 2 492 l 4 494 q 2 496 4 496 q 4 502 2 498 q 0 519 2 515 q 2 526 2 522 q 0 534 2 530 l 4 549 q 2 551 4 551 q 39 728 2 626 q 127 860 65 793 q 187 912 149 885 q 354 970 257 961 l 361 968 l 401 972 m 519 538 l 519 532 q 543 511 522 511 q 564 532 564 515 l 564 538 q 539 558 564 555 q 519 538 519 552 m 494 334 q 549 266 494 286 q 562 264 559 266 q 629 317 608 264 q 631 332 629 330 q 564 401 618 401 q 496 347 516 401 q 494 334 496 336 z "},"r":{"ha":654,"x_min":0,"x_max":640,"o":"m 306 971 l 309 969 q 311 971 311 969 l 320 969 l 343 969 q 402 960 402 964 l 411 962 l 474 944 q 603 815 574 894 l 612 774 q 610 772 612 772 q 613 746 612 750 q 467 603 613 621 q 465 604 465 603 l 456 603 l 440 603 q 374 623 414 606 q 345 683 345 645 l 356 703 l 370 713 q 399 722 397 722 q 479 696 422 722 q 503 690 483 696 l 517 690 l 528 692 q 533 690 531 690 q 551 701 533 694 q 567 735 559 707 l 565 746 l 565 749 q 567 751 565 751 l 556 794 q 506 857 532 844 q 436 887 482 880 q 365 894 423 890 q 200 854 265 894 q 174 830 200 852 q 141 731 141 789 q 165 669 141 707 q 225 621 194 637 q 354 565 311 579 q 536 470 496 512 q 608 382 581 436 q 640 258 640 319 q 638 252 640 256 l 640 241 l 640 234 l 637 229 q 638 224 638 225 l 637 220 l 638 216 q 593 115 623 153 q 538 59 584 96 l 472 20 q 469 16 469 19 l 465 18 l 463 18 q 387 0 408 0 q 381 2 382 2 q 377 0 377 2 q 309 11 343 2 q 252 77 264 38 q 245 125 247 100 l 247 125 l 245 129 l 245 132 q 247 134 245 134 q 245 136 247 136 q 250 155 247 155 q 249 157 250 157 q 254 177 252 177 l 252 180 q 258 186 252 183 l 256 190 l 256 191 q 264 213 262 201 l 277 241 q 279 243 279 241 l 279 245 l 277 249 q 308 309 291 267 l 309 309 l 308 313 l 309 317 q 308 322 308 320 l 311 323 q 309 329 309 327 q 315 365 315 337 q 290 444 315 413 q 236 470 278 461 q 172 426 193 470 l 161 406 q 149 336 154 388 q 150 334 149 334 q 146 300 146 311 q 150 256 149 256 q 149 254 150 254 l 152 190 l 150 186 l 152 175 l 152 159 q 150 157 152 157 q 152 155 150 155 q 127 45 140 60 q 106 14 119 26 l 102 16 q 61 7 102 7 q 20 39 35 15 q 12 68 16 43 l 14 68 l 12 71 q 52 170 12 97 q 95 279 84 237 l 93 283 l 93 284 l 96 290 l 96 297 q 102 342 102 340 l 100 349 q 104 395 104 369 q 102 401 102 399 l 104 401 l 102 404 q 104 406 102 406 q 100 431 102 408 l 102 431 q 96 452 99 448 q 98 454 96 454 q 90 497 94 497 q 91 499 90 499 q 52 640 90 543 l 23 713 l 7 770 l 3 776 q 5 778 3 778 q 2 792 2 785 q 3 794 2 794 q 0 810 2 798 q 27 876 0 836 q 161 949 79 929 q 163 951 161 951 l 165 951 l 174 949 q 229 964 182 958 q 245 968 240 964 q 256 966 254 966 q 277 969 268 969 l 298 969 q 306 971 302 969 m 381 671 q 406 648 381 648 q 426 671 426 650 q 401 692 426 689 q 381 671 381 685 m 297 113 q 359 52 297 64 q 426 116 426 64 q 361 182 426 170 q 297 127 312 182 l 297 113 m 43 79 q 68 57 48 57 q 87 79 87 64 l 87 82 q 68 102 83 102 l 64 102 q 43 79 47 102 z "},"s":{"ha":654,"x_min":0,"x_max":638,"o":"m 334 977 l 336 972 q 344 975 337 972 q 455 935 397 975 q 505 850 498 890 q 512 827 505 847 q 510 825 512 825 l 512 816 l 512 814 q 510 786 512 802 l 512 777 q 475 671 512 734 q 439 647 454 656 l 437 647 q 435 649 435 647 l 428 646 q 426 647 426 646 l 417 646 q 376 673 396 646 q 370 691 373 686 l 370 719 q 373 722 370 722 l 371 726 q 418 806 374 745 q 425 817 418 810 q 437 861 435 839 q 399 912 427 898 q 362 922 380 920 l 362 924 q 357 922 360 924 l 344 924 q 265 905 285 918 q 196 806 196 859 q 197 804 196 804 l 196 795 l 196 783 q 221 722 197 760 q 309 660 278 671 q 494 565 425 605 q 562 507 547 524 q 605 441 596 467 q 635 353 615 441 l 638 311 q 636 305 636 307 q 638 300 636 303 q 631 254 634 258 q 633 247 633 251 q 620 207 630 246 q 488 51 582 108 q 355 9 432 24 l 289 0 q 276 2 281 2 l 265 0 q 252 2 258 2 q 247 0 250 2 q 136 18 194 3 q 31 81 73 37 q 9 130 9 105 q 0 181 5 130 q 5 208 3 208 l 3 212 l 3 216 q 15 252 9 248 l 13 256 l 22 283 q 37 316 24 283 q 124 433 60 368 q 208 485 158 469 q 232 488 214 485 l 256 488 q 336 455 293 488 q 368 391 365 419 q 376 344 370 391 q 375 340 376 340 q 391 265 383 265 q 418 250 391 255 q 459 278 441 250 q 475 318 466 278 q 473 336 473 328 l 473 338 q 475 340 473 340 q 433 437 461 399 q 362 501 384 494 q 338 515 362 504 q 298 539 335 519 q 210 596 262 558 q 142 680 145 656 q 123 749 132 699 l 123 764 q 124 766 123 766 l 123 770 l 123 772 q 130 806 127 800 q 128 814 128 810 l 132 816 l 130 819 q 150 870 141 853 q 241 956 191 936 l 274 969 l 278 967 q 334 977 304 975 m 402 706 q 422 686 407 686 l 431 686 q 448 711 448 694 q 422 732 440 732 q 402 706 405 732 m 178 386 q 231 320 178 340 q 243 318 236 320 q 309 371 290 318 q 311 384 309 382 q 245 452 298 452 q 199 433 222 452 q 178 386 178 409 z "},"t":{"ha":651,"x_min":-79,"x_max":699,"o":"m 123 973 l 123 972 l 126 973 l 141 973 q 231 937 191 973 q 427 840 344 840 q 509 869 460 840 q 511 867 511 869 q 602 920 578 910 q 630 923 602 920 q 686 894 668 923 q 684 892 684 894 q 696 865 696 880 l 696 862 l 695 852 q 699 849 699 852 q 668 806 690 826 q 560 783 617 783 l 560 785 q 558 783 558 785 q 535 786 535 785 l 531 785 q 524 788 524 786 q 359 716 424 788 q 312 626 321 669 q 302 585 308 626 l 302 568 q 301 562 302 564 q 302 554 302 558 l 302 551 q 301 543 302 547 q 302 536 302 540 l 301 532 l 304 522 q 301 513 302 513 l 312 457 q 310 452 310 454 q 328 392 313 452 q 337 372 332 380 l 335 369 q 353 324 340 368 q 351 319 351 320 q 371 254 360 305 q 378 196 378 207 q 362 110 378 144 q 307 28 339 48 q 250 0 281 7 l 243 0 q 236 2 239 0 q 229 0 233 0 q 182 33 182 15 q 173 61 173 47 q 195 119 176 87 q 249 163 220 147 q 308 225 292 193 q 317 250 309 225 q 315 256 315 254 l 319 257 q 283 383 309 341 q 238 491 253 430 l 236 500 l 238 500 q 231 552 235 500 q 229 554 229 552 q 233 578 233 564 l 229 579 q 231 603 231 595 q 229 608 231 604 l 231 619 l 231 628 q 229 644 231 634 l 231 648 q 229 669 229 657 l 189 623 q 100 562 139 577 q 94 563 96 563 q 56 557 94 557 l 40 557 q -45 599 -3 557 q -79 694 -79 644 l -79 709 q -28 865 -79 789 q 42 945 -20 889 q 123 973 106 973 m 616 852 q 637 831 621 831 l 641 831 q 661 851 656 831 l 661 854 q 637 876 661 873 q 616 852 616 869 m -26 671 q 38 604 -26 617 q 105 671 105 616 q 53 734 105 715 q 40 736 42 734 q -24 686 -5 736 q -26 671 -24 673 m 202 61 q 225 38 204 38 q 245 58 245 44 l 245 61 q 225 83 243 83 l 222 83 q 202 61 203 83 z "},"u":{"ha":581,"x_min":0,"x_max":578,"o":"m 515 975 l 522 973 q 530 975 523 973 q 568 956 553 970 q 578 924 578 928 l 576 920 l 578 912 q 539 841 575 882 q 516 806 539 838 q 495 733 501 766 l 493 733 l 497 716 q 493 712 493 715 l 493 710 q 495 701 493 704 l 493 693 q 501 622 497 638 l 499 618 q 505 606 502 606 q 503 601 503 603 l 516 545 l 515 545 q 532 488 524 498 l 530 478 l 539 439 l 538 436 q 557 338 549 406 l 555 334 q 557 326 557 331 q 555 321 555 323 q 559 317 559 320 l 557 305 q 559 303 557 303 l 557 296 q 559 278 557 289 q 553 221 556 237 l 555 217 q 553 210 555 216 q 555 201 555 206 q 547 169 551 201 q 488 67 531 123 q 401 14 454 35 q 340 0 357 0 l 326 0 q 321 2 324 0 q 315 0 317 0 l 307 2 l 303 0 q 194 44 257 4 q 130 138 144 95 q 115 208 119 180 q 117 213 117 211 q 113 227 113 221 q 115 232 115 230 l 113 236 q 115 250 115 243 l 113 254 q 117 271 115 271 q 115 273 117 273 q 127 367 119 313 l 125 370 l 129 380 q 127 397 127 391 l 127 401 q 129 403 127 403 l 127 407 l 127 418 q 129 425 127 425 l 127 434 l 127 436 q 85 616 127 527 l 86 620 q 56 686 82 625 q 0 825 5 770 q 33 906 0 869 q 63 924 36 906 q 94 933 78 931 q 96 931 96 933 q 111 935 111 932 q 250 887 182 935 q 328 806 298 853 q 374 696 374 726 q 376 695 376 696 q 374 689 374 691 q 384 608 382 689 q 313 437 384 543 q 263 259 263 345 q 294 155 263 185 q 346 127 306 138 q 347 129 347 127 l 357 127 q 472 211 428 127 q 497 342 497 266 l 497 346 l 495 355 l 497 355 q 492 399 495 364 l 493 399 q 457 534 480 471 q 426 622 457 541 q 395 787 395 721 q 409 844 406 842 l 407 848 l 407 850 q 503 973 452 973 l 513 971 l 515 975 m 478 922 q 499 897 481 897 l 501 897 q 526 922 526 899 q 501 945 526 940 q 478 922 478 939 m 46 818 q 102 749 46 768 q 117 747 110 749 q 184 802 163 747 q 186 816 184 813 q 136 883 186 862 q 119 887 119 885 q 48 831 67 887 q 46 818 48 820 z "},"v":{"ha":608,"x_min":0,"x_max":595,"o":"m 323 976 l 342 976 q 444 941 380 976 q 515 885 501 901 q 572 808 572 825 q 593 751 584 793 l 593 749 l 591 746 q 595 732 595 740 l 595 727 q 593 711 595 721 q 595 706 595 708 q 591 701 591 706 q 593 696 591 699 q 549 610 584 651 q 438 475 458 506 q 407 426 414 440 q 332 268 370 363 q 317 224 328 263 q 304 195 314 224 l 306 191 q 281 130 301 186 l 280 130 l 281 127 q 264 68 269 100 q 258 50 260 68 q 259 45 259 47 q 254 40 258 45 l 256 37 q 249 10 252 28 l 252 10 l 252 7 q 238 0 252 2 q 229 31 231 14 q 228 33 228 31 l 229 37 q 222 49 227 37 l 226 50 q 219 78 226 53 l 221 78 l 198 209 q 179 283 182 277 q 178 286 178 283 q 179 290 178 287 q 157 369 179 295 l 127 454 l 47 629 q 0 785 13 702 q 2 786 0 786 l 0 795 l 0 804 q 2 805 0 805 q 0 807 2 807 q 18 873 0 842 q 61 903 41 903 l 73 904 q 151 808 132 904 l 150 805 q 151 800 151 802 l 150 800 l 151 796 l 151 793 q 150 791 151 791 l 151 788 l 151 779 q 150 777 151 777 l 151 774 q 144 736 147 747 q 146 730 144 734 q 144 715 144 721 q 146 709 144 713 q 141 678 142 699 q 142 673 142 675 l 141 669 l 142 666 l 141 663 l 142 659 q 139 648 141 648 q 146 602 144 623 l 144 602 l 151 570 l 150 570 l 155 553 l 153 549 q 158 541 154 541 l 158 532 l 161 520 l 160 520 q 238 323 188 410 l 243 323 q 259 363 243 330 l 258 367 q 283 468 266 382 q 281 469 283 469 q 287 499 286 499 q 286 501 287 501 q 289 545 287 535 l 287 548 l 289 551 l 287 558 l 289 562 q 286 579 287 564 q 287 585 287 583 q 283 588 283 585 l 283 598 l 281 616 l 283 616 q 231 788 277 652 q 216 850 221 813 l 216 887 l 226 916 q 323 976 265 976 m 261 876 q 321 812 261 825 q 386 861 367 812 l 386 884 q 337 937 386 919 q 323 939 330 937 q 262 878 262 927 q 261 876 261 878 m 37 850 q 56 828 37 828 l 61 828 q 80 850 80 831 q 61 869 80 865 l 56 869 q 37 850 37 865 z "},"w":{"ha":1305,"x_min":0,"x_max":1296,"o":"m 1035 972 l 1039 970 q 1055 972 1048 972 l 1059 970 q 1061 972 1061 970 q 1209 939 1123 972 q 1289 861 1272 907 q 1294 838 1289 852 l 1292 838 q 1296 823 1296 829 q 1294 820 1296 820 l 1296 809 l 1296 802 q 1263 699 1283 722 q 1180 597 1262 681 q 1113 541 1158 575 q 1019 460 1113 538 l 941 393 q 907 362 941 391 q 747 186 789 248 q 671 87 711 149 q 574 5 602 5 l 554 2 l 554 5 l 550 2 l 547 2 q 507 31 522 9 q 480 159 491 31 l 483 179 q 480 186 480 183 l 483 190 q 480 199 480 194 q 485 212 480 203 q 483 221 483 216 l 485 221 q 483 228 483 226 q 487 259 487 254 l 485 259 q 409 121 429 191 q 351 14 375 28 q 315 0 333 0 q 266 24 275 12 q 214 165 229 77 l 217 165 l 176 324 q 107 467 154 395 q 14 706 19 633 q 5 749 9 706 q 2 751 2 749 q 5 753 2 753 l 2 758 l 2 773 q 0 795 2 784 l 7 827 l 7 847 q 52 894 26 894 q 67 901 52 899 l 74 901 q 125 863 94 901 q 150 816 125 859 q 176 704 176 709 q 174 697 174 700 q 197 552 181 697 q 257 344 215 417 q 281 315 264 330 l 284 315 q 286 322 284 317 q 284 328 284 326 q 324 449 288 328 q 378 574 338 473 q 400 623 386 585 q 507 740 465 740 l 530 740 q 538 742 534 740 q 585 706 557 739 q 612 633 598 684 l 610 628 q 619 574 614 615 l 617 570 q 621 563 619 563 q 619 559 621 559 q 621 509 621 525 l 621 474 q 626 369 621 396 q 623 362 623 364 q 628 351 628 362 q 695 469 663 389 q 706 507 705 507 l 704 512 q 718 561 710 524 q 715 563 718 563 q 726 648 726 637 q 724 659 724 652 l 728 668 q 726 671 728 671 q 762 854 726 772 q 871 943 791 911 q 1035 972 960 972 m 1077 811 q 1156 735 1077 751 q 1236 811 1236 749 l 1236 827 q 1168 896 1236 876 q 1158 899 1161 896 q 1077 829 1097 899 l 1077 811 m 45 836 l 45 831 q 71 809 45 811 q 98 831 98 811 l 98 840 q 71 863 98 861 l 67 863 q 45 836 47 863 m 485 673 q 512 648 493 648 l 516 648 q 541 673 534 648 l 541 677 q 514 704 536 704 q 485 673 490 704 z "},"x":{"ha":960,"x_min":0,"x_max":950,"o":"m 242 974 l 260 970 q 269 972 264 972 q 315 961 275 968 q 474 795 400 922 q 540 631 507 748 q 544 605 540 620 l 546 605 q 605 766 555 680 q 699 852 670 840 q 841 895 755 895 q 918 863 910 886 q 950 810 937 863 q 924 749 942 774 q 830 684 890 709 q 675 605 738 652 q 594 496 605 532 q 583 441 583 456 l 585 426 l 583 426 q 585 419 585 422 q 596 363 585 374 q 594 360 596 360 q 716 192 615 300 q 747 151 727 174 q 780 52 780 110 q 760 16 776 31 q 732 0 750 7 l 727 0 q 614 98 661 0 q 583 192 601 151 l 585 197 q 526 321 568 259 q 517 332 517 326 l 513 332 q 474 256 513 327 q 397 125 452 203 q 286 37 328 50 q 177 4 214 4 l 177 7 q 164 2 168 2 q 81 72 81 12 q 220 195 81 131 q 376 299 313 241 q 433 372 417 345 q 452 406 439 376 q 360 476 414 451 q 258 520 320 502 q 83 598 129 559 q 9 703 32 628 q 0 749 0 741 l 2 753 l 0 758 l 2 766 q 0 769 2 769 q 22 848 2 806 q 70 900 43 882 q 166 957 130 953 q 242 974 180 967 m 852 800 l 852 793 q 878 771 852 773 q 904 795 904 773 l 904 800 q 878 823 904 821 q 852 800 852 821 m 59 727 q 122 649 59 672 q 138 646 135 649 q 216 725 216 659 l 218 725 q 155 804 218 781 q 140 806 142 804 q 61 730 61 793 q 59 727 59 730 m 111 75 q 140 50 111 54 q 166 77 166 56 q 136 105 166 102 q 111 75 114 105 m 688 81 l 688 75 q 716 50 692 50 q 741 75 735 50 l 741 81 q 712 105 737 105 q 688 81 688 98 z "},"y":{"ha":928,"x_min":21,"x_max":916,"o":"m 865 975 l 897 952 q 916 899 909 930 q 913 890 913 895 l 913 888 q 916 882 913 882 q 844 717 916 800 q 804 666 844 712 q 747 599 785 640 q 652 476 736 582 q 543 269 576 361 q 507 64 517 161 q 510 61 507 61 q 503 2 507 30 q 505 -6 505 -1 l 501 -9 l 503 -30 q 476 -170 495 -121 q 378 -267 433 -250 q 330 -283 378 -268 l 319 -281 l 281 -281 q 279 -279 279 -281 l 275 -281 l 269 -281 q 131 -231 186 -267 q 46 -138 54 -170 q 21 -53 21 -83 q 42 32 27 11 q 118 110 61 65 q 279 193 163 139 q 391 321 357 237 q 421 433 421 392 l 421 440 q 418 457 421 449 l 421 465 q 382 643 409 595 q 338 696 368 676 q 207 741 311 711 q 131 840 131 781 l 131 842 q 140 884 135 884 l 138 888 q 182 945 146 915 q 262 969 233 969 q 309 966 286 966 q 416 916 379 952 q 484 802 466 868 q 503 692 503 742 q 518 569 509 692 q 558 499 530 499 q 626 575 588 499 q 647 620 644 619 l 717 825 q 825 969 781 969 q 865 975 836 973 m 829 909 q 852 886 835 886 l 859 886 q 882 909 876 886 q 859 937 882 933 l 852 937 q 829 909 829 933 m 176 827 q 199 804 182 804 l 205 804 q 229 827 229 808 l 229 831 q 205 854 225 854 l 199 854 q 176 827 180 854 m 68 -38 q 125 -112 68 -90 q 142 -117 142 -114 l 146 -114 q 148 -117 148 -114 q 220 -55 195 -117 q 222 -40 220 -43 q 161 36 222 14 q 150 38 150 36 q 70 -21 92 38 q 68 -38 70 -36 z "},"z":{"ha":968,"x_min":0,"x_max":956,"o":"m 595 970 l 614 970 q 616 968 616 970 q 618 970 618 968 q 745 915 676 970 q 768 892 745 911 q 800 808 789 861 l 802 798 q 800 795 802 795 l 802 785 l 802 777 q 800 768 802 772 q 802 762 802 764 q 583 499 778 649 q 542 467 575 489 l 406 352 q 371 303 371 315 l 371 294 q 412 271 378 271 l 416 271 q 555 346 472 271 q 678 471 623 425 q 736 501 683 471 q 789 514 752 508 l 808 514 q 810 512 810 514 l 814 514 l 862 503 q 939 416 907 485 q 956 330 949 380 l 954 330 l 956 326 l 956 300 q 879 73 956 172 q 772 9 836 24 q 755 4 772 6 l 751 6 l 721 0 l 715 0 q 535 62 640 0 q 444 109 465 109 q 378 121 407 121 q 239 90 319 121 q 123 54 189 71 l 123 56 q 87 49 115 51 q 2 111 26 49 l 4 115 q 0 147 0 135 l 0 151 q 171 431 0 283 q 286 520 177 443 q 503 652 376 578 q 593 721 561 693 q 631 793 625 760 q 565 879 631 851 q 531 883 556 883 q 427 849 480 883 q 322 772 399 835 q 209 725 255 725 q 203 727 207 725 q 201 725 201 727 q 92 787 132 725 q 81 834 81 821 l 81 844 q 153 887 101 887 q 245 868 184 887 l 283 868 q 410 913 315 870 q 520 962 458 942 q 538 968 538 964 q 595 970 577 970 m 121 819 l 121 814 q 145 791 125 791 l 151 791 q 175 819 171 791 q 151 842 168 842 l 145 842 q 121 819 121 839 m 727 391 q 806 311 741 311 q 881 376 860 311 q 883 388 881 385 q 821 465 883 442 q 806 467 814 465 q 727 391 727 453 z "},"{":{"ha":688,"x_min":163,"x_max":600,"o":"m 163 473 q 314 522 279 477 q 349 612 349 566 l 349 929 q 401 1025 349 979 q 526 1071 453 1071 l 600 1071 l 600 1037 l 538 1037 q 466 1014 497 1037 q 434 952 435 991 l 434 613 q 393 506 434 557 q 296 454 352 454 l 296 452 q 393 401 352 452 q 435 294 435 350 l 434 -45 q 466 -107 435 -85 q 538 -130 497 -130 l 600 -130 l 600 -164 l 526 -164 q 401 -118 453 -164 q 349 -22 349 -73 l 349 295 q 314 385 349 340 q 163 433 279 429 l 163 473 z "},"|":{"ha":688,"x_min":290,"x_max":398,"o":"m 290 1069 l 398 1069 l 398 -283 l 290 -283 l 290 1069 z "},"}":{"ha":688,"x_min":88,"x_max":525,"o":"m 525 433 q 374 385 408 429 q 339 295 339 340 l 339 -22 q 287 -118 338 -73 q 161 -164 235 -164 l 88 -164 l 88 -130 l 149 -130 q 222 -107 191 -130 q 254 -45 253 -85 l 253 294 q 294 401 253 350 q 392 452 336 452 l 392 454 q 295 506 336 454 q 254 613 254 557 l 254 952 q 222 1014 253 991 q 149 1037 191 1037 l 88 1037 l 88 1071 l 161 1071 q 287 1025 235 1071 q 339 929 339 979 l 339 612 q 374 522 339 566 q 525 473 408 477 l 525 433 z "},"~":{"ha":688,"x_min":64,"x_max":626,"o":"m 626 595 l 626 490 q 543 424 583 441 q 465 406 503 406 q 344 439 424 406 q 224 472 264 472 q 152 453 190 472 q 64 377 113 434 l 64 483 q 147 550 107 532 q 224 568 187 568 q 348 534 268 568 q 465 500 427 500 q 538 519 500 500 q 626 595 576 538 z "},"":{"ha":456,"x_min":0,"x_max":0,"o":""},"":{"ha":772,"x_min":0,"x_max":0,"o":""},"":{"ha":688,"x_min":52,"x_max":635,"o":"m 507 913 q 399 935 458 935 l 397 935 q 269 866 330 935 q 212 703 212 803 q 212 682 212 692 q 248 497 212 591 l 492 497 l 492 456 l 266 456 q 287 416 275 436 q 311 322 311 373 q 201 68 311 213 l 473 68 q 602 157 562 68 l 635 157 l 565 0 l 77 0 l 78 34 q 205 317 205 195 q 182 414 205 370 q 161 456 170 436 l 52 456 l 52 497 l 143 497 q 104 669 104 594 q 188 904 104 822 q 395 986 271 986 l 398 986 q 524 977 449 986 q 599 954 599 967 l 599 844 l 559 844 q 507 913 556 886 z "},"":{"ha":688,"x_min":83,"x_max":604,"o":"m 237 380 q 304 341 265 353 q 344 336 324 336 q 383 341 363 336 q 450 380 422 353 q 489 447 477 408 q 495 486 495 467 q 489 526 495 506 q 450 593 477 565 q 382 631 422 620 q 343 637 363 637 q 304 631 323 637 q 237 593 264 619 q 199 526 211 566 q 193 486 193 506 q 199 448 193 467 q 237 380 210 408 m 163 612 l 83 692 l 137 747 l 217 667 q 284 699 247 688 q 345 708 314 708 q 401 700 372 708 q 470 667 439 688 l 550 747 l 604 692 l 525 613 q 557 544 546 582 q 566 486 566 515 q 557 429 566 458 q 525 359 546 391 l 604 280 l 550 225 l 470 305 q 401 273 439 283 q 344 264 373 264 q 286 273 315 264 q 217 305 248 283 l 137 225 l 83 280 l 163 359 q 130 429 141 391 q 122 486 122 458 q 131 545 122 516 q 163 612 142 583 z "},"":{"ha":856,"x_min":5,"x_max":864,"o":"m 371 153 l 370 317 q 369 340 370 330 q 366 362 368 351 l 37 363 q 23 367 28 363 q 18 380 18 372 q 23 393 18 389 q 37 397 27 397 l 354 397 l 272 514 l 39 514 q 23 518 27 514 q 18 530 18 522 q 22 544 18 540 q 37 547 26 547 l 245 547 q 172 652 216 586 q 18 786 83 786 q 9 790 14 786 q 5 798 5 793 q 13 816 5 810 q 35 822 20 822 q 118 817 53 822 q 229 811 183 811 l 289 811 q 317 807 311 811 q 322 789 322 802 q 312 779 322 783 q 286 775 302 775 q 274 777 282 775 q 261 778 265 778 q 236 771 245 778 q 227 754 227 765 q 238 719 227 742 q 269 667 249 696 l 376 517 q 399 481 385 504 q 447 433 427 433 q 458 437 453 433 q 468 447 463 440 l 656 715 q 665 733 661 724 q 668 750 668 743 q 661 768 668 762 q 636 778 654 774 q 608 781 626 779 q 576 798 576 783 q 582 813 576 808 q 599 818 587 818 q 609 817 601 818 q 682 812 647 812 l 777 812 q 821 813 797 812 q 846 814 844 814 q 858 811 853 814 q 864 803 863 808 q 838 780 864 784 q 820 777 826 778 q 720 697 777 766 q 712 687 715 691 l 597 547 l 817 547 q 833 543 827 547 q 839 532 839 539 q 835 518 839 522 q 819 514 831 514 l 571 514 q 506 438 540 475 q 470 397 471 400 l 817 397 q 834 394 829 397 q 839 382 839 390 q 834 368 839 372 q 819 363 829 363 l 460 363 q 459 342 460 355 q 458 322 458 329 l 460 176 q 464 75 460 99 q 477 45 467 50 q 550 32 498 33 q 603 11 603 31 q 596 -3 603 3 q 579 -8 589 -8 q 555 -5 578 -8 q 511 -3 532 -3 q 370 -5 450 -3 q 273 -8 290 -8 q 246 -5 252 -8 q 240 5 240 -3 q 245 18 240 14 q 271 26 251 22 q 288 30 277 28 q 350 52 338 41 q 366 83 361 60 q 371 153 371 106 z "},"":{"ha":688,"x_min":290,"x_max":398,"o":"m 290 252 l 398 252 l 398 -283 l 290 -283 l 290 252 m 290 1070 l 398 1070 l 398 535 l 290 535 l 290 1070 z "},"":{"ha":688,"x_min":115,"x_max":572,"o":"m 370 218 q 435 254 408 229 q 485 366 485 298 q 484 373 485 370 l 483 373 q 480 391 482 382 q 404 477 465 433 q 318 497 363 497 q 233 467 265 497 q 201 387 201 437 q 370 218 201 304 m 316 -235 q 441 -188 393 -231 q 490 -76 490 -144 q 276 111 490 9 q 157 204 193 155 q 121 324 121 254 q 182 485 121 425 q 297 541 227 529 l 270 553 q 151 646 186 597 q 115 766 115 696 q 176 927 115 867 q 322 985 231 981 q 334 986 328 986 l 336 986 q 446 975 380 986 q 512 947 512 964 l 512 815 l 477 815 q 423 905 474 870 q 322 939 376 937 l 312 939 q 227 909 259 939 q 195 829 195 879 q 390 647 195 740 q 529 550 491 602 q 566 422 566 498 q 498 231 566 307 q 431 188 466 205 q 535 108 504 150 q 572 -19 572 56 q 504 -211 572 -135 q 316 -282 420 -280 l 316 -281 q 307 -282 312 -282 l 305 -282 q 195 -271 260 -282 q 129 -243 129 -260 l 129 -111 l 163 -111 q 218 -201 167 -166 q 316 -235 264 -231 z "},"":{"ha":694,"x_min":142,"x_max":536,"o":"m 151 874 l 199 923 q 216 931 208 931 q 235 922 224 931 l 281 872 q 288 855 288 863 q 280 837 288 846 l 233 786 q 216 774 222 774 q 199 783 207 774 l 148 841 q 142 857 142 849 q 151 874 142 865 m 399 874 l 447 923 q 464 931 456 931 q 482 922 471 931 l 529 872 q 536 855 536 863 q 528 838 536 846 l 481 786 q 464 774 469 774 q 447 783 454 774 l 395 842 q 389 857 389 849 q 399 874 389 865 z "},"":{"ha":1135,"x_min":68,"x_max":1067,"o":"m 570 987 q 760 949 668 987 q 922 840 851 911 q 1029 679 991 772 q 1067 487 1067 586 q 1029 296 1067 387 q 919 133 991 204 q 757 25 848 62 q 565 -12 666 -12 q 376 25 466 -12 q 215 134 287 63 q 105 295 143 205 q 68 487 68 386 q 105 679 68 587 q 214 840 143 770 q 375 949 283 911 q 570 987 468 987 m 242 812 q 143 663 178 747 q 109 487 109 579 q 143 311 109 394 q 243 163 178 229 q 392 63 310 98 q 566 28 474 28 q 742 63 659 28 q 890 161 825 97 q 991 312 956 228 q 1027 487 1027 395 q 991 663 1027 578 q 893 812 956 748 q 744 912 828 877 q 569 947 660 947 q 391 912 476 947 q 242 812 307 877 m 587 151 q 408 197 490 151 q 281 323 325 243 q 238 488 238 402 q 282 653 238 573 q 410 778 327 733 q 582 823 492 823 q 633 819 608 823 q 684 805 658 814 q 690 804 688 804 q 708 825 703 804 l 736 825 l 785 690 l 755 690 q 667 774 720 754 q 567 792 618 792 l 557 792 q 444 744 498 787 q 361 624 389 701 q 339 499 339 563 q 340 465 339 482 q 388 313 348 383 q 489 210 427 243 q 602 182 538 183 q 733 220 686 182 q 781 305 781 258 l 817 305 l 817 237 q 751 179 817 206 q 587 151 686 151 z "},"":{"ha":439,"x_min":0,"x_max":0,"o":""},"":{"ha":640,"x_min":118,"x_max":572,"o":"m 118 325 l 350 530 l 359 530 l 359 505 l 220 325 l 359 144 l 359 119 l 350 119 l 118 325 m 330 325 l 562 530 l 572 530 l 572 505 l 433 325 l 572 144 l 572 119 l 562 119 l 330 325 z "},"":{"ha":688,"x_min":59,"x_max":629,"o":"m 59 520 l 629 520 l 629 187 l 628 186 l 562 186 l 562 452 l 59 452 l 59 520 z "},"":{"ha":1135,"x_min":68,"x_max":1067,"o":"m 509 745 l 509 492 l 511 486 q 549 431 527 448 q 587 416 569 416 l 591 416 q 633 443 612 419 q 665 509 654 466 q 673 578 673 543 q 673 597 673 587 q 654 681 670 642 q 615 733 637 720 q 572 745 593 745 l 509 745 m 667 391 l 723 312 q 825 216 791 216 l 848 216 l 848 182 l 613 182 l 613 216 l 644 216 q 664 231 664 216 q 617 309 664 251 l 566 378 q 509 406 538 378 l 509 298 q 534 216 509 216 l 570 216 l 570 182 l 355 182 l 355 216 l 385 216 q 410 298 410 216 l 410 663 q 385 745 410 745 l 355 745 l 355 793 l 597 793 q 682 764 640 792 q 744 687 722 736 q 766 584 766 637 q 745 482 766 531 q 667 391 723 433 m 570 987 q 760 949 668 987 q 922 840 851 911 q 1029 679 991 772 q 1067 487 1067 586 q 1029 296 1067 387 q 919 133 991 204 q 757 25 848 62 q 565 -12 666 -12 q 376 25 466 -12 q 215 134 287 63 q 105 295 143 205 q 68 487 68 386 q 105 679 68 587 q 214 840 143 770 q 375 949 283 911 q 570 987 468 987 m 242 812 q 143 663 178 747 q 109 487 109 579 q 143 311 109 394 q 243 163 178 229 q 392 63 310 98 q 566 28 474 28 q 742 63 659 28 q 890 161 825 97 q 991 312 956 228 q 1027 487 1027 395 q 991 663 1027 578 q 893 812 956 748 q 744 912 828 877 q 569 947 660 947 q 391 912 476 947 q 242 812 307 877 z "},"":{"ha":454,"x_min":0,"x_max":0,"o":""},"":{"ha":457,"x_min":41,"x_max":418,"o":"m 230 930 q 130 889 172 930 q 88 789 88 848 q 130 689 88 730 q 230 648 171 648 q 330 689 289 648 q 370 789 370 730 q 329 889 370 848 q 230 930 288 930 m 230 978 q 363 923 308 978 q 418 789 418 867 q 362 656 418 712 q 229 601 307 601 q 95 656 149 601 q 41 789 41 711 q 96 923 41 868 q 230 978 151 978 z "},"":{"ha":688,"x_min":0,"x_max":0,"o":""},"":{"ha":688,"x_min":0,"x_max":0,"o":""},"":{"ha":688,"x_min":0,"x_max":0,"o":""},"":{"ha":694,"x_min":214,"x_max":527,"o":"m 412 932 q 449 964 435 956 q 477 972 463 972 q 513 959 499 972 q 527 924 527 945 q 516 896 527 909 q 485 869 506 882 l 261 731 l 214 731 l 412 932 z "},"":{"ha":800,"x_min":0,"x_max":0,"o":""},"":{"ha":694,"x_min":63,"x_max":630,"o":"m 630 973 l 630 926 l 544 926 l 544 0 l 488 0 l 488 926 l 376 926 l 376 0 l 319 0 l 319 500 q 132 570 201 506 q 63 736 63 634 q 136 908 63 843 q 330 973 209 973 l 630 973 z "},"":{"ha":345,"x_min":87,"x_max":257,"o":"m 98 502 l 154 559 q 174 568 164 568 q 195 557 182 568 l 249 499 q 257 479 257 488 q 248 458 257 469 l 193 399 q 174 385 180 385 q 154 395 163 385 l 94 463 q 87 481 87 472 q 98 502 87 491 z "},"":{"ha":694,"x_min":244,"x_max":521,"o":"m 244 -197 q 347 -232 302 -232 q 411 -217 392 -232 q 431 -172 431 -203 q 397 -129 431 -142 q 328 -118 370 -118 q 305 -119 317 -118 l 338 0 l 380 0 l 355 -71 q 397 -67 377 -68 q 488 -95 456 -67 q 521 -172 521 -122 q 481 -253 521 -223 q 372 -283 441 -283 q 244 -262 298 -283 l 244 -197 z "},"":{"ha":688,"x_min":0,"x_max":0,"o":""},"":{"ha":487,"x_min":0,"x_max":0,"o":""},"":{"ha":640,"x_min":68,"x_max":522,"o":"m 78 119 l 68 119 l 68 144 l 208 325 l 68 505 l 68 530 l 78 530 l 310 325 l 78 119 m 290 119 l 281 119 l 281 144 l 420 325 l 281 505 l 281 530 l 290 530 l 522 325 l 290 119 z "},"":{"ha":1158,"x_min":0,"x_max":0,"o":""},"":{"ha":1332,"x_min":0,"x_max":0,"o":""},"":{"ha":1158,"x_min":0,"x_max":0,"o":""},"":{"ha":507,"x_min":0,"x_max":0,"o":""},"":{"ha":1044,"x_min":0,"x_max":0,"o":""},"":{"ha":1044,"x_min":0,"x_max":0,"o":""},"":{"ha":1044,"x_min":0,"x_max":0,"o":""},"":{"ha":1044,"x_min":0,"x_max":0,"o":""},"":{"ha":1044,"x_min":0,"x_max":0,"o":""},"":{"ha":1044,"x_min":0,"x_max":0,"o":""},"":{"ha":1436,"x_min":0,"x_max":0,"o":""},"":{"ha":949,"x_min":0,"x_max":0,"o":""},"":{"ha":781,"x_min":0,"x_max":0,"o":""},"":{"ha":781,"x_min":0,"x_max":0,"o":""},"":{"ha":781,"x_min":0,"x_max":0,"o":""},"":{"ha":781,"x_min":0,"x_max":0,"o":""},"":{"ha":446,"x_min":0,"x_max":0,"o":""},"":{"ha":446,"x_min":0,"x_max":0,"o":""},"":{"ha":446,"x_min":0,"x_max":0,"o":""},"":{"ha":446,"x_min":0,"x_max":0,"o":""},"":{"ha":1029,"x_min":0,"x_max":0,"o":""},"":{"ha":1054,"x_min":0,"x_max":0,"o":""},"":{"ha":1095,"x_min":0,"x_max":0,"o":""},"":{"ha":1095,"x_min":0,"x_max":0,"o":""},"":{"ha":1095,"x_min":0,"x_max":0,"o":""},"":{"ha":1095,"x_min":0,"x_max":0,"o":""},"":{"ha":1095,"x_min":0,"x_max":0,"o":""},"":{"ha":688,"x_min":109,"x_max":578,"o":"m 344 419 l 176 252 l 109 319 l 277 486 l 109 654 l 176 721 l 344 553 l 512 721 l 578 654 l 411 486 l 578 319 l 511 252 l 344 419 z "},"":{"ha":1095,"x_min":0,"x_max":0,"o":""},"":{"ha":1018,"x_min":0,"x_max":0,"o":""},"":{"ha":1018,"x_min":0,"x_max":0,"o":""},"":{"ha":1018,"x_min":0,"x_max":0,"o":""},"":{"ha":1018,"x_min":0,"x_max":0,"o":""},"":{"ha":836,"x_min":0,"x_max":0,"o":""},"":{"ha":760,"x_min":0,"x_max":0,"o":""},"":{"ha":848,"x_min":0,"x_max":0,"o":""},"":{"ha":625,"x_min":0,"x_max":0,"o":""},"":{"ha":625,"x_min":0,"x_max":0,"o":""},"":{"ha":625,"x_min":0,"x_max":0,"o":""},"":{"ha":625,"x_min":0,"x_max":0,"o":""},"":{"ha":625,"x_min":0,"x_max":0,"o":""},"":{"ha":625,"x_min":0,"x_max":0,"o":""},"":{"ha":986,"x_min":0,"x_max":0,"o":""},"":{"ha":614,"x_min":0,"x_max":0,"o":""},"":{"ha":616,"x_min":0,"x_max":0,"o":""},"":{"ha":616,"x_min":0,"x_max":0,"o":""},"":{"ha":616,"x_min":0,"x_max":0,"o":""},"":{"ha":616,"x_min":0,"x_max":0,"o":""},"":{"ha":349,"x_min":0,"x_max":0,"o":""},"":{"ha":349,"x_min":0,"x_max":0,"o":""},"":{"ha":349,"x_min":0,"x_max":0,"o":""},"":{"ha":349,"x_min":0,"x_max":0,"o":""},"":{"ha":772,"x_min":0,"x_max":0,"o":""},"":{"ha":751,"x_min":0,"x_max":0,"o":""},"":{"ha":685,"x_min":0,"x_max":0,"o":""},"":{"ha":685,"x_min":0,"x_max":0,"o":""},"":{"ha":685,"x_min":0,"x_max":0,"o":""},"":{"ha":685,"x_min":0,"x_max":0,"o":""},"":{"ha":685,"x_min":0,"x_max":0,"o":""},"":{"ha":688,"x_min":59,"x_max":629,"o":"m 59 439 l 59 534 l 628 534 l 629 533 l 629 439 l 59 439 m 270 277 l 326 334 q 345 343 336 343 q 366 332 354 343 l 420 274 q 429 254 429 263 q 419 233 429 244 l 365 174 q 345 160 351 160 q 326 170 334 160 l 266 238 q 259 256 259 247 q 270 277 259 266 m 270 747 l 326 804 q 345 813 336 813 q 366 802 354 813 l 420 744 q 429 724 429 733 q 419 703 429 714 l 365 644 q 345 630 351 630 q 326 640 334 630 l 266 708 q 259 726 259 717 q 270 747 259 736 z "},"":{"ha":685,"x_min":0,"x_max":0,"o":""},"":{"ha":718,"x_min":0,"x_max":0,"o":""},"":{"ha":718,"x_min":0,"x_max":0,"o":""},"":{"ha":718,"x_min":0,"x_max":0,"o":""},"":{"ha":718,"x_min":0,"x_max":0,"o":""},"":{"ha":589,"x_min":0,"x_max":0,"o":""},"":{"ha":685,"x_min":0,"x_max":0,"o":""},"":{"ha":589,"x_min":0,"x_max":0,"o":""},"":{"ha":349,"x_min":13,"x_max":321,"o":"m 222 151 q 290 34 222 34 l 321 34 l 321 0 l 22 0 l 22 34 l 53 34 q 121 151 121 34 l 121 444 q 45 496 121 496 l 13 496 l 13 526 q 190 650 163 573 l 222 650 l 222 151 z "},"":{"ha":694,"x_min":150,"x_max":545,"o":"m 150 732 l 307 972 l 387 972 l 545 732 l 505 732 l 347 878 l 189 732 l 150 732 z "},"":{"ha":694,"x_min":150,"x_max":545,"o":"m 150 972 l 189 972 l 347 827 l 505 972 l 545 972 l 387 731 l 307 731 l 150 972 z "},"":{"ha":694,"x_min":172,"x_max":522,"o":"m 172 810 l 172 895 l 522 895 l 522 810 l 172 810 z "},"":{"ha":694,"x_min":149,"x_max":545,"o":"m 149 915 l 183 915 q 234 842 195 865 q 347 819 273 819 q 460 842 421 819 q 510 915 498 865 l 545 915 q 481 778 531 825 q 347 732 431 732 q 214 779 264 732 q 149 915 163 825 z "},"":{"ha":694,"x_min":277,"x_max":422,"o":"m 286 874 l 333 923 q 342 929 337 927 q 351 931 347 931 q 360 929 355 931 q 368 923 364 927 l 416 871 q 421 865 420 869 q 422 855 422 861 q 420 845 422 849 q 415 837 419 841 l 367 785 q 356 776 359 778 q 351 774 353 774 q 340 776 345 774 q 333 782 336 778 l 282 841 q 278 847 279 844 q 277 857 277 851 q 279 865 277 861 q 286 874 281 869 z "},"":{"ha":694,"x_min":227,"x_max":468,"o":"m 279 852 q 298 804 279 824 q 347 785 318 785 q 395 804 375 785 q 414 852 414 824 q 394 900 414 880 q 347 920 374 920 q 299 900 319 920 q 279 852 279 880 m 227 852 q 262 938 227 903 q 347 972 296 972 q 433 938 398 972 q 468 852 468 903 q 433 767 468 802 q 347 732 398 732 q 262 767 296 732 q 227 852 227 802 z "},"":{"ha":694,"x_min":250,"x_max":500,"o":"m 434 0 q 359 -81 386 -42 q 332 -157 332 -120 q 351 -208 332 -189 q 400 -227 369 -227 q 447 -217 427 -227 q 481 -184 467 -206 l 500 -195 q 438 -260 475 -237 q 357 -283 401 -283 q 280 -259 310 -283 q 250 -198 250 -235 q 291 -92 250 -146 q 401 0 332 -37 l 434 0 z "},"":{"ha":694,"x_min":159,"x_max":548,"o":"m 548 937 q 502 833 534 867 q 416 798 469 798 l 413 798 q 336 814 379 798 q 259 830 292 830 q 218 816 233 830 q 195 768 203 802 l 159 768 q 205 875 172 840 q 292 911 238 911 q 369 895 323 910 q 445 879 412 879 l 448 879 q 487 892 472 879 q 511 937 502 906 l 548 937 z "},"":{"ha":694,"x_min":147,"x_max":547,"o":"m 147 732 l 245 917 q 276 960 261 947 q 307 972 290 972 q 340 959 326 972 q 353 927 353 945 q 346 903 353 916 q 326 876 339 890 l 186 732 l 147 732 m 340 732 l 438 917 q 469 960 454 947 q 500 972 484 972 q 533 959 519 972 q 547 927 547 945 q 539 903 547 916 q 519 876 532 890 l 380 732 l 340 732 z "},"":{"ha":751,"x_min":38,"x_max":713,"o":"m 38 284 l 38 366 l 713 366 l 713 284 l 38 284 z "},"":{"ha":1389,"x_min":0,"x_max":1389,"o":"m 0 284 l 0 366 l 1389 366 l 1389 284 l 0 284 z "},"":{"ha":378,"x_min":126,"x_max":297,"o":"m 216 689 q 156 733 186 689 q 126 836 126 778 q 174 990 126 910 q 269 1069 222 1069 l 269 1040 q 210 911 219 1011 q 297 802 210 831 l 297 774 l 216 689 z "},"":{"ha":378,"x_min":81,"x_max":252,"o":"m 161 1069 q 221 1025 191 1069 q 252 922 252 981 q 203 769 252 848 q 109 689 155 689 l 109 718 q 168 847 159 747 q 81 956 168 928 l 81 985 l 161 1069 z "},"":{"ha":378,"x_min":81,"x_max":252,"o":"m 161 191 q 221 146 191 191 q 252 43 252 102 q 203 -110 252 -31 q 109 -190 155 -190 l 109 -161 q 168 -32 159 -132 q 81 77 168 49 l 81 106 l 161 191 z "},"":{"ha":617,"x_min":126,"x_max":536,"o":"m 216 689 q 156 733 186 689 q 126 836 126 778 q 174 990 126 910 q 269 1069 222 1069 l 269 1040 q 210 911 219 1011 q 297 802 210 831 l 297 774 l 216 689 m 456 689 q 396 733 426 689 q 366 836 366 778 q 414 990 366 910 q 508 1069 462 1069 l 508 1040 q 449 911 458 1011 q 536 802 449 831 l 536 774 l 456 689 z "},"":{"ha":617,"x_min":81,"x_max":491,"o":"m 161 1069 q 221 1025 191 1069 q 252 922 252 981 q 203 769 252 848 q 109 689 155 689 l 109 718 q 168 847 159 747 q 81 956 168 928 l 81 985 l 161 1069 m 401 1069 q 461 1025 431 1069 q 491 922 491 981 q 443 769 491 848 q 349 689 395 689 l 349 718 q 408 847 398 747 q 320 956 408 928 l 320 985 l 401 1069 z "},"":{"ha":617,"x_min":81,"x_max":491,"o":"m 161 191 q 221 146 191 191 q 252 43 252 102 q 203 -110 252 -31 q 109 -190 155 -190 l 109 -161 q 168 -32 159 -132 q 81 77 168 49 l 81 106 l 161 191 m 401 191 q 461 146 431 191 q 491 43 491 102 q 443 -110 491 -31 q 349 -190 395 -190 l 349 -161 q 408 -32 398 -132 q 320 77 408 49 l 320 106 l 401 191 z "},"":{"ha":688,"x_min":48,"x_max":640,"o":"m 330 693 q 293 814 324 759 q 254 901 254 882 q 279 955 254 935 q 344 975 303 975 q 408 956 382 975 q 433 907 433 937 q 396 814 433 886 q 359 693 365 757 q 479 730 424 699 q 566 768 547 768 q 620 744 600 768 q 640 679 640 720 q 622 615 640 640 q 572 589 603 589 q 480 627 551 589 q 359 665 422 658 q 433 477 364 546 q 357 -183 361 165 l 332 -183 q 254 477 328 165 q 330 665 323 546 q 209 628 264 659 q 121 589 140 589 q 68 614 88 589 q 48 679 48 638 q 67 743 48 718 q 115 768 85 768 q 208 730 137 768 q 330 693 266 699 z "},"":{"ha":688,"x_min":47,"x_max":640,"o":"m 358 126 q 479 165 422 134 q 572 202 550 202 q 621 177 602 202 q 640 113 640 151 q 619 47 640 72 q 566 23 599 23 q 478 62 547 23 q 358 98 423 93 q 395 -23 364 35 q 433 -116 433 -94 q 407 -164 433 -146 q 343 -183 382 -183 q 278 -163 302 -183 q 254 -110 254 -143 q 292 -22 254 -91 q 329 98 323 33 q 208 61 265 92 q 115 23 136 23 q 66 48 85 23 q 47 113 47 74 q 67 178 47 153 q 121 202 87 202 q 208 163 140 202 q 329 126 264 133 q 254 396 323 279 q 329 665 323 512 q 208 628 264 659 q 121 589 140 589 q 67 614 87 589 q 47 679 47 638 q 66 743 47 718 q 115 768 85 768 q 208 730 136 768 q 329 693 265 699 q 292 814 323 759 q 254 901 254 882 q 278 955 254 935 q 343 975 302 975 q 407 956 382 975 q 433 907 433 937 q 395 814 433 886 q 358 693 364 757 q 478 730 423 699 q 566 768 547 768 q 619 744 599 768 q 640 679 640 720 q 621 615 640 640 q 572 589 602 589 q 479 627 550 589 q 358 665 422 658 q 433 396 363 512 q 358 126 363 279 z "},"":{"ha":694,"x_min":146,"x_max":548,"o":"m 146 487 q 205 629 146 570 q 348 687 264 687 q 489 628 431 687 q 548 487 548 570 q 489 345 548 404 q 347 286 429 286 q 205 345 263 286 q 146 487 146 404 z "},"":{"ha":1389,"x_min":87,"x_max":1183,"o":"m 98 113 l 154 170 q 174 180 164 180 q 195 169 182 180 l 249 111 q 257 91 257 100 q 248 70 257 81 l 193 10 q 174 -3 180 -3 q 154 6 163 -3 l 94 75 q 87 92 87 83 q 98 113 87 102 m 562 113 l 617 170 q 637 180 627 180 q 658 169 646 180 l 712 111 q 720 91 720 100 q 711 70 720 81 l 656 10 q 637 -3 643 -3 q 617 6 626 -3 l 557 75 q 551 92 551 83 q 562 113 551 102 m 1025 113 l 1080 170 q 1100 180 1090 180 q 1121 169 1109 180 l 1175 111 q 1183 91 1183 100 q 1174 70 1183 81 l 1120 10 q 1100 -3 1106 -3 q 1080 6 1089 -3 l 1021 75 q 1014 92 1014 83 q 1025 113 1014 102 z "},"":{"ha":428,"x_min":118,"x_max":359,"o":"m 118 325 l 350 530 l 359 530 l 359 505 l 220 325 l 359 144 l 359 119 l 350 119 l 118 325 z "},"":{"ha":428,"x_min":68,"x_max":310,"o":"m 78 119 l 68 119 l 68 144 l 208 325 l 68 505 l 68 530 l 78 530 l 310 325 l 78 119 z "},"":{"ha":232,"x_min":-232,"x_max":463,"o":"m -232 -20 l 406 971 l 463 971 l -174 -20 l -232 -20 z "},"":{"ha":688,"x_min":33,"x_max":723,"o":"m 168 242 l 36 242 l 36 283 l 168 283 l 168 779 q 98 939 168 939 l 33 939 l 33 972 l 653 972 l 723 816 l 690 816 q 561 939 650 939 l 347 939 q 277 779 277 939 l 277 541 l 522 541 q 590 583 590 541 l 590 623 l 624 623 l 624 391 l 590 391 l 590 431 q 522 473 590 473 l 277 473 l 277 283 l 409 283 l 409 242 l 277 242 l 277 193 q 347 34 277 34 l 412 34 l 412 0 l 33 0 l 33 34 l 98 34 q 168 193 168 34 l 168 242 z "},"":{"ha":688,"x_min":52,"x_max":635,"o":"m 507 913 q 399 935 458 935 l 397 935 q 269 866 330 935 q 212 703 212 803 q 212 682 212 692 q 235 538 212 610 l 492 538 l 492 497 l 248 497 q 266 456 256 477 l 505 456 l 505 416 l 287 416 q 311 322 311 373 q 201 68 311 213 l 473 68 q 602 157 562 68 l 635 157 l 565 0 l 77 0 l 78 34 q 205 317 205 195 q 182 414 205 370 l 180 416 l 64 416 l 64 456 l 161 456 q 143 497 151 477 l 52 497 l 52 538 l 128 538 q 104 669 104 610 q 188 904 104 822 q 398 986 271 986 q 524 977 449 986 q 599 954 599 967 l 599 844 l 559 844 q 507 913 556 886 z "},"":{"ha":1375,"x_min":33,"x_max":1334,"o":"m 277 939 l 277 490 q 282 478 279 484 q 355 374 310 409 q 434 345 394 345 q 447 345 441 345 q 533 396 493 351 q 592 516 573 441 q 607 637 607 575 q 606 669 607 654 q 573 818 602 748 q 499 916 544 887 q 423 939 461 939 q 409 939 416 939 l 277 939 m 1015 616 l 893 616 l 893 151 q 916 71 893 96 q 971 45 935 50 l 923 176 l 956 176 q 1034 58 994 88 q 1120 28 1072 28 l 1124 28 q 1227 64 1187 28 q 1267 156 1267 100 q 1091 309 1267 225 q 994 385 1023 345 q 964 484 964 426 q 1014 615 964 566 l 1015 616 m 705 617 q 672 486 700 549 q 576 365 638 408 q 448 322 515 322 q 318 366 380 322 q 277 400 296 380 l 277 193 q 347 34 277 34 l 412 34 l 412 0 l 33 0 l 33 34 l 98 34 q 168 193 168 34 l 168 779 q 98 939 168 939 l 33 939 l 33 972 l 452 972 q 574 930 514 971 q 671 810 636 888 q 706 650 705 734 l 713 650 q 859 890 859 650 l 893 890 l 893 650 l 1069 650 q 1143 663 1097 663 l 1145 663 q 1235 654 1181 663 q 1289 631 1289 645 l 1289 524 l 1261 524 q 1216 597 1258 568 q 1126 625 1175 625 q 1056 601 1082 625 q 1030 535 1030 576 q 1190 386 1030 462 q 1303 306 1272 349 q 1334 202 1334 264 q 1278 45 1334 107 q 1123 -13 1208 -12 q 1052 -5 1084 -13 q 1014 -1 1033 -1 q 989 -3 1002 -1 q 949 -7 970 -7 q 832 32 865 -7 q 793 151 798 71 l 792 151 l 792 617 l 705 617 z "},"":{"ha":688,"x_min":-30,"x_max":724,"o":"m 95 252 q 43 443 53 344 l -30 443 l -18 484 l 41 484 l 41 503 q 41 524 41 514 l -7 524 l 5 565 l 44 565 q 96 755 54 663 q 249 941 151 876 q 451 1006 347 1006 q 510 1001 480 1006 q 566 981 537 994 q 576 977 571 977 q 600 1008 590 977 l 627 1008 l 684 817 l 657 817 q 564 937 624 907 q 509 959 534 952 l 509 961 q 440 972 475 972 q 417 970 429 972 q 264 893 336 962 q 157 708 192 825 q 131 565 136 637 l 610 565 l 598 524 l 129 524 q 130 484 129 504 l 587 484 l 576 443 l 134 443 q 190 241 145 336 q 321 81 240 134 q 467 34 390 35 q 641 96 593 36 q 691 221 691 157 l 724 221 l 724 124 q 648 38 724 77 q 467 0 577 1 q 247 66 345 0 q 95 252 149 133 z "},"":{"ha":1540,"x_min":0,"x_max":0,"o":""},"":{"ha":1015,"x_min":0,"x_max":0,"o":""},"":{"ha":688,"x_min":52,"x_max":635,"o":"m 157 364 q 161 311 157 336 q 202 155 170 228 q 283 43 235 81 q 370 7 326 7 q 378 7 374 7 q 465 55 426 11 q 519 177 504 100 q 530 278 530 227 q 527 336 530 307 q 485 493 517 418 q 404 605 452 567 q 317 639 359 639 l 309 639 q 224 592 263 635 q 168 471 184 548 q 157 364 157 414 m 635 323 q 597 153 635 234 q 489 28 559 73 q 344 -17 420 -17 q 198 28 268 -17 q 91 153 129 73 q 52 323 52 234 q 92 494 52 412 q 201 619 131 575 q 344 663 271 663 q 488 619 418 663 q 524 591 507 607 q 366 847 467 751 q 144 952 264 943 l 144 989 q 494 796 352 989 q 635 323 635 603 z "},"":{"ha":733,"x_min":4,"x_max":728,"o":"m 349 810 l 73 83 l 616 83 l 349 810 m 371 972 l 728 0 l 4 0 l 371 972 z "},"":{"ha":1027,"x_min":33,"x_max":995,"o":"m 347 939 q 277 779 277 939 l 277 -90 q 347 -249 277 -249 l 412 -249 l 412 -283 l 33 -283 l 33 -249 l 98 -249 q 168 -90 168 -249 l 168 779 q 98 939 168 939 l 33 939 l 33 972 l 995 972 l 995 939 l 929 939 q 860 779 860 939 l 860 -90 q 929 -249 860 -249 l 995 -249 l 995 -283 l 615 -283 l 615 -249 l 680 -249 q 750 -90 750 -249 l 750 779 q 680 939 750 939 l 347 939 z "},"":{"ha":818,"x_min":81,"x_max":776,"o":"m 718 372 l 184 -248 l 614 -248 q 743 -125 703 -248 l 776 -125 l 706 -282 l 81 -282 l 81 -248 q 153 -212 123 -248 l 603 317 l 153 900 q 81 939 123 939 l 81 972 l 706 972 l 776 815 l 743 815 q 614 939 703 939 l 286 939 l 718 372 z "},"":{"ha":688,"x_min":59,"x_max":629,"o":"m 59 439 l 59 534 l 628 534 l 629 533 l 629 439 l 59 439 z "},"":{"ha":688,"x_min":12,"x_max":715,"o":"m 123 0 l 12 243 l 62 267 l 119 142 l 613 1139 l 715 1139 l 715 1098 l 666 1098 l 123 0 z "},"":{"ha":688,"x_min":45,"x_max":645,"o":"m 298 512 q 248 602 288 582 q 191 617 216 617 q 175 616 182 617 q 112 586 142 609 q 68 528 83 562 q 54 467 54 497 l 54 462 q 73 401 56 429 q 121 362 90 374 q 163 355 141 355 q 185 357 174 355 q 247 386 217 363 q 298 512 276 409 m 316 466 q 380 362 324 401 q 463 330 427 330 q 477 331 471 330 q 557 366 519 339 q 614 435 595 393 q 632 508 632 471 l 632 515 q 608 589 631 556 q 546 635 585 622 q 494 644 521 644 q 465 642 479 644 q 378 600 419 635 q 316 466 338 564 m 305 561 q 319 608 311 585 q 384 701 342 667 q 471 734 425 734 q 557 701 516 734 q 622 610 599 669 q 645 486 645 551 q 622 363 645 422 q 557 271 599 304 q 471 239 516 239 q 384 272 425 239 q 319 364 342 305 q 305 412 311 388 q 297 384 302 397 q 247 307 279 334 q 180 280 215 280 q 112 308 144 280 q 62 385 79 336 q 45 486 45 434 q 62 587 45 538 q 112 665 79 637 q 180 692 144 692 q 247 665 215 692 q 297 589 279 638 q 305 561 302 575 z "},"":{"ha":451,"x_min":-49,"x_max":492,"o":"m -8 -191 q -49 -171 -49 -191 l -49 -63 l -24 -63 q -1 -107 -24 -92 q 42 -121 22 -121 l 43 -121 q 121 -12 98 -121 q 148 203 142 98 l 195 701 l 201 743 q 292 1034 219 904 q 451 1164 366 1164 q 492 1144 492 1164 l 492 1036 l 467 1036 q 444 1080 467 1065 q 401 1095 420 1095 q 322 989 353 1095 q 289 743 292 884 l 239 222 q 151 -62 226 66 q -8 -191 76 -191 z "},"":{"ha":688,"x_min":64,"x_max":626,"o":"m 626 714 l 626 608 q 543 542 583 559 q 465 525 503 525 q 344 558 424 525 q 224 591 264 591 q 152 572 190 591 q 64 496 113 553 l 64 602 q 147 669 107 651 q 224 686 187 686 q 348 653 268 686 q 465 619 427 619 q 538 638 500 619 q 626 714 576 657 m 626 478 l 626 372 q 543 306 583 323 q 465 289 503 289 q 344 322 424 289 q 224 355 264 355 q 152 336 190 355 q 64 260 113 317 l 64 366 q 147 433 107 415 q 224 450 187 450 q 348 417 268 450 q 465 383 427 383 q 538 402 500 383 q 626 478 576 421 z "},"":{"ha":688,"x_min":59,"x_max":629,"o":"m 629 728 l 205 485 l 629 244 l 629 131 l 59 457 l 59 513 l 629 842 l 629 728 m 59 1 l 59 96 l 628 96 l 629 95 l 629 1 l 59 1 z "},"":{"ha":688,"x_min":59,"x_max":629,"o":"m 59 842 l 629 513 l 629 457 l 59 131 l 59 244 l 483 485 l 59 728 l 59 842 m 59 1 l 59 96 l 628 96 l 629 96 l 629 1 l 59 1 z "},"":{"ha":728,"x_min":0,"x_max":0,"o":""},"":{"ha":733,"x_min":0,"x_max":0,"o":""}}}
